<?xml version="1.0" encoding="UTF-8" standalone="no"?>
<svg
   width="102.772pt"
   height="66.037003pt"
   viewBox="0 0 102.772 66.037003"
   version="1.1"
   id="svg170"
   sodipodi:docname="1cpipc.svg"
   inkscape:version="1.2.2 (732a01da63, 2022-12-09)"
   xml:space="preserve"
   xmlns:inkscape="http://www.inkscape.org/namespaces/inkscape"
   xmlns:sodipodi="http://sodipodi.sourceforge.net/DTD/sodipodi-0.dtd"
   xmlns="http://www.w3.org/2000/svg"
   xmlns:svg="http://www.w3.org/2000/svg"><defs
     id="defs174" /><sodipodi:namedview
     id="namedview172"
     pagecolor="#ffffff"
     bordercolor="#000000"
     borderopacity="0.25"
     inkscape:showpageshadow="2"
     inkscape:pageopacity="0.0"
     inkscape:pagecheckerboard="0"
     inkscape:deskcolor="#d1d1d1"
     inkscape:document-units="pt"
     showgrid="false"
     inkscape:zoom="32"
     inkscape:cx="136.0625"
     inkscape:cy="81.484375"
     inkscape:window-width="960"
     inkscape:window-height="1001"
     inkscape:window-x="951"
     inkscape:window-y="-9"
     inkscape:window-maximized="0"
     inkscape:current-layer="g2323" /><g
     id="g4867"
     transform="translate(-163.46637,-36.514668)"><path
       fill="#2d9e95"
       stroke="#2d9e95"
       stroke-width="0.09375"
       opacity="1"
       d="m 180.39973,38.161947 c 1.00935,-1.1883 2.52084,-1.59919 3.93039,-1.59919 8.09612,-0.007 16.19224,0.0186 24.28837,-0.003 1.08862,-0.0172 2.21375,0.14461 3.18408,0.73732 1.00053,0.60418 1.77578,1.67508 2.09293,2.91349 0.19255,0.78743 0.20262,1.61208 0.19885,2.42385 -0.0151,2.5212 0.008,5.04241 -0.0126,7.56361 -1.63734,0 -3.27595,0 -4.9133,0.0172 -0.2064,-1.1611 -0.19129,-2.35083 -0.3247,-3.52195 -0.11578,-1.02796 0.11201,-2.18762 -0.5311,-3.04521 -0.13592,-0.27488 -0.11956,-0.60417 -0.15731,-0.90769 -0.15984,-0.0558 -0.31841,-0.11167 -0.47573,-0.16894 -0.62549,-0.2577 -1.28496,-0.41232 -1.95324,-0.39944 -2.6857,0.0272 -5.3714,-0.003 -8.0571,0.004 -0.99424,0.007 -1.98974,0.0387 -2.98272,-0.0515 -1.40703,-0.12885 -2.82162,-0.12599 -4.22866,0.007 -0.81552,0.0859 -1.62853,-0.0573 -2.44406,-0.043 -0.52858,0.004 -1.01438,0.26343 -1.49388,0.48677 -0.46691,0.18755 -0.97158,0.0745 -1.45486,0.11024 l -0.11326,0.007 c -0.12586,1.78531 0.0843,3.58924 -0.16487,5.36597 -0.0466,0.29779 -0.12082,0.68434 -0.43419,0.74161 -0.74757,0.21762 -1.52786,0.10022 -2.28927,0.12742 -0.67961,-0.0157 -1.37683,0.0945 -2.04259,-0.10451 -0.26555,-0.37367 -0.26933,-0.88765 -0.3096,-1.34293 -0.0705,-1.89985 0.0403,-3.80256 -0.0466,-5.70241 -0.0264,-0.74448 -0.0793,-1.48752 -0.0868,-2.23343 0.0894,-0.56695 0.48957,-0.98071 0.82182,-1.38302 z"
       id="path6"
       style="stroke-width:0.08775;stroke-dasharray:none" /><path
       fill="#2a8b81"
       stroke="#2a8b81"
       stroke-width="0.09375"
       opacity="1"
       d="m 179.08835,43.207217 c 0.0264,-1.22982 -0.14977,-2.58133 0.48956,-3.66225 0.008,0.74591 0.0604,1.48895 0.0868,2.23343 0.0868,1.89985 -0.0239,3.80256 0.0466,5.70241 0.0403,0.45528 0.044,0.96926 0.3096,1.34293 0.66576,0.199 1.36298,0.0888 2.04259,0.10451 0.76141,-0.0272 1.5417,0.0902 2.28927,-0.12742 0.31337,-0.0573 0.38762,-0.44382 0.43419,-0.74161 0.24919,-1.77673 0.039,-3.58066 0.16487,-5.36597 l 0.11326,-0.007 c -0.0604,2.51404 -0.0365,5.02809 -0.0214,7.54213 -1.95576,0.073 -3.91151,-0.01 -5.86601,0.004 l -0.0829,-0.002 c 0.0931,-2.34082 -0.0279,-4.68218 -0.006,-7.023 z"
       id="path8"
       style="fill:#2d9e95;fill-opacity:1;stroke:#2d9e95;stroke-width:0.0126178;stroke-dasharray:none;stroke-opacity:1"
       sodipodi:nodetypes="cccccccccccccc" /><path
       fill="#318b84"
       stroke="#318b84"
       stroke-width="0.09375"
       opacity="1"
       d="m 186.51996,42.575847 c 0.4795,-0.22334 0.9653,-0.48248 1.49388,-0.48677 0.81553,-0.0143 1.62854,0.12885 2.44406,0.043 1.40704,-0.13315 2.82163,-0.13601 4.22866,-0.007 0.99298,0.0902 1.98848,0.0587 2.98272,0.0515 2.6857,-0.007 5.3714,0.0229 8.0571,-0.004 0.66828,-0.0129 1.32775,0.14174 1.95324,0.39944 -0.31589,0.0587 -0.63304,0.10738 -0.95145,0.11597 -5.8723,-0.0114 -11.74459,-0.007 -17.61689,-0.0129 -0.86461,-0.0115 -1.73552,0.0759 -2.59132,-0.0988 z"
       id="path10"
       style="fill:#2d9e95;fill-opacity:1;stroke:#2d9e95;stroke-width:0.0033558;stroke-dasharray:none;stroke-opacity:1" /><path
       fill="#2c8a7b"
       stroke="#2c8a7b"
       stroke-width="0.0125842"
       opacity="1"
       d="m 208.31266,43.648177 c 0.64311,0.85759 0.41532,2.01725 0.5311,3.04521 0.13341,1.17112 0.1183,2.36085 0.3247,3.52195 -0.185,0 -0.36875,0 -0.55249,0 -0.10068,-10e-4 -0.30205,-10e-4 -0.40399,-10e-4 -0.0365,-1.66792 0.004,-3.33584 -0.0214,-5.00232 -0.0126,-0.52543 0.0176,-1.05086 0.12207,-1.56341 z"
       id="path12"
       style="fill:#2d9e95;fill-opacity:1;stroke:#2d9e95;stroke-opacity:1" /><path
       fill="#ceb352"
       stroke="#ceb352"
       stroke-width="0.0125842"
       opacity="1"
       d="m 165.70263,51.098687 c 0.87216,-0.82751 2.06147,-0.8991 3.14632,-0.91914 3.40432,0.0114 6.8099,-0.02 10.21297,0.0544 l 0.11578,-10e-4 c -0.10068,1.99577 -0.0415,3.99871 -0.0289,5.99734 l -0.10446,-10e-4 c -3.21177,-0.0816 -6.42605,0.0659 -9.6353,-0.0687 1.2774,-0.15176 2.56362,-0.0387 3.8448,-0.0745 1.91549,-0.0215 3.83474,0.0759 5.74897,-0.0444 0.10194,-1.26848 0.0528,-2.54268 0.0692,-3.81402 -0.0101,-0.56551 0.0113,-1.15537 -0.17494,-1.69082 -0.47698,-0.19185 -0.99424,-0.13744 -1.49136,-0.14603 -2.97894,0.0215 -5.95914,-0.0415 -8.93933,-0.0215 -0.96026,-0.0158 -1.88402,0.32356 -2.76373,0.73016 z"
       id="path14"
       style="fill:#edaf15;fill-opacity:1;stroke:#edaf15;stroke-opacity:1" /><path
       fill="#327141"
       stroke="#327141"
       stroke-width="0.0125842"
       opacity="1"
       d="m 179.1777,50.232517 c 1.9545,-0.0143 3.91025,0.0687 5.86601,-0.004 -0.0101,2.00723 -0.008,4.01589 0,6.02312 -1.96457,-0.0329 -3.93039,-0.0773 -5.89495,-0.0215 -0.0126,-1.99863 -0.0717,-4.00157 0.0289,-5.99734 z"
       id="path16" /><path
       fill="#89cdc8"
       stroke="#89cdc8"
       stroke-width="0.0125842"
       opacity="1"
       d="m 185.04371,50.228217 c 2.5309,0 5.0618,-0.0129 7.59271,0.01 0.87593,0.02 1.77327,-0.0243 2.61648,0.29063 1.25475,0.44382 2.40631,1.43741 2.92357,2.84047 0.33099,0.80461 0.34987,1.708 0.34861,2.57847 0.005,2.58133 0.0164,5.16124 0.001,7.74257 -0.0478,-0.53688 -0.0931,-1.07376 -0.1246,-1.61208 -0.039,-0.67003 -0.0252,-1.34292 -0.0994,-2.01009 -0.0793,-0.70582 -0.23157,-1.40162 -0.26807,-2.11317 -0.0566,-0.8175 0.029,-1.64358 -0.0843,-2.45678 -0.0906,-1.00218 -1.06094,-1.3644 -1.45738,-2.1776 0.28946,-0.20759 0.58018,-0.41805 0.86839,-0.63137 -0.44678,-0.0258 -0.91369,0.0286 -1.33782,-0.16465 -0.71484,-0.34217 -1.32397,-0.91771 -2.03756,-1.25988 -0.52606,-0.12026 -0.96152,0.35792 -1.37935,0.64569 -0.43671,0.36794 -1.0043,0.53116 -1.35669,1.02222 -0.21143,0.29493 -0.44552,0.56552 -0.70604,0.80461 -0.46943,0.29779 -0.26429,1.20978 0.21395,1.35724 0.64311,0.31927 1.34034,0.0429 2.00736,0.13172 0.35994,0.59558 0.1032,1.37442 0.0856,2.04302 -0.0428,-0.3207 -0.0994,-0.63853 -0.1548,-0.95637 -1.1503,-0.12169 -2.30563,-0.053 -3.45844,-0.0644 -1.39823,0.009 -2.79645,0.003 -4.19342,0.003 -0.008,-2.00723 -0.0101,-4.01589 0,-6.02312 z"
       id="path18" /><path
       fill="#135f4d"
       stroke="#135f4d"
       stroke-width="0.09375"
       opacity="1"
       d="m 208.21198,50.213907 c 0.10194,0 0.30331,0 0.40399,10e-4 0.11956,1.66935 0.0768,3.34586 0.13089,5.01807 -0.0264,1.16253 0.0894,2.32363 0.0466,3.48473 -0.12837,1.80106 0.20388,3.60356 -0.0403,5.3989 -0.18123,0.004 -0.36246,0.009 -0.54369,0.0129 -0.0214,-4.63867 -0.006,-9.27734 0.003,-13.91601 z"
       id="path20"
       style="fill:#0c7666;fill-opacity:1;stroke:#0c7666;stroke-width:0.0394642;stroke-dasharray:none;stroke-opacity:1" /><path
       fill="#0a6c5a"
       stroke="#0a6c5a"
       stroke-width="0.09375"
       opacity="1"
       d="m 208.61597,50.215337 c 0.18374,0 0.36749,0 0.55249,0 -0.0906,1.20548 0.13844,2.39521 0.22528,3.59067 0.16487,1.69656 0.12837,3.40599 0.0931,5.1097 -0.0214,0.94062 0.21898,1.86549 0.15858,2.80897 -0.0529,0.80461 -0.19004,1.5992 -0.36498,2.3809 -0.17619,0.004 -0.35239,0.007 -0.52732,0.0115 0.24415,-1.79534 -0.0881,-3.59784 0.0403,-5.3989 0.0428,-1.1611 -0.073,-2.3222 -0.0466,-3.48473 -0.0541,-1.67221 -0.0113,-3.34872 -0.13089,-5.01807 z"
       id="path22"
       style="fill:#0c7666;fill-opacity:1;stroke:#0c7666;stroke-width:0.09375;stroke-dasharray:none;stroke-opacity:1" /><path
       fill="#0c7666"
       stroke="#0c7666"
       stroke-width="0.09375"
       opacity="1"
       d="m 209.16846,50.215337 c 1.63735,-0.0172 3.27596,-0.0172 4.9133,-0.0172 0.0302,4.6401 0.0252,9.2845 -0.008,13.9246 -1.49136,-0.0129 -2.98271,0.02 -4.47407,-0.02 -0.0793,10e-4 -0.23912,0.003 -0.31967,0.003 0.17494,-0.7817 0.31212,-1.57629 0.36498,-2.3809 0.0604,-0.94348 -0.17997,-1.86835 -0.15858,-2.80897 0.0352,-1.70371 0.0717,-3.41314 -0.0931,-5.1097 -0.0868,-1.19546 -0.31589,-2.38519 -0.22528,-3.59067 z"
       id="path24"
       style="stroke-width:0.0126178;stroke-dasharray:none" /><path
       fill="#edaf15"
       stroke="#edaf15"
       stroke-width="0.0125842"
       opacity="1"
       d="m 165.70263,51.098687 c 0.87971,-0.4066 1.80347,-0.74591 2.76373,-0.73016 2.98019,-0.02 5.96039,0.0429 8.93933,0.0215 0.49712,0.009 1.01438,-0.0458 1.49136,0.14603 0.18626,0.53545 0.16487,1.12531 0.17494,1.69082 -0.0164,1.27134 0.0327,2.54554 -0.0692,3.81402 -1.91423,0.12026 -3.83348,0.0229 -5.74897,0.0444 -1.28118,0.0358 -2.5674,-0.0773 -3.8448,0.0745 3.20925,0.13458 6.42353,-0.0129 9.6353,0.0687 -0.83315,0.15176 -1.67888,0.0515 -2.51832,0.0759 -2.31569,0.0258 -4.63265,-0.043 -6.94708,0.0286 -0.22906,2.1547 -0.12208,4.32514 -0.14851,6.48842 -0.0189,1.06804 0.0629,2.13751 -0.0214,3.20268 l -0.0176,-0.10737 c -0.0126,-0.0673 -0.0378,-0.2033 -0.0503,-0.27059 -0.701,0.15176 -1.41332,0.23336 -2.12817,0.21475 -1.15407,-0.0358 -2.31443,0.0945 -3.46473,-0.0888 -0.0491,-0.64856 -0.0793,-1.29854 -0.0642,-1.94853 0.0629,-2.43387 0.001,-4.86774 0.0327,-7.30161 0.0113,-0.68578 -0.0277,-1.37013 -0.0516,-2.05591 0.10823,-1.40162 0.90488,-2.77318 2.03756,-3.36733 z"
       id="path26" /><path
       fill="#82ccc7"
       stroke="#82ccc7"
       stroke-width="0.09375"
       opacity="1"
       d="m 192.60621,51.910457 c 0.41783,-0.28777 0.85329,-0.76595 1.37935,-0.64569 0.71359,0.34217 1.32272,0.91771 2.03756,1.25988 0.42413,0.19328 0.89104,0.13888 1.33782,0.16465 -0.28821,0.21332 -0.57893,0.42378 -0.86839,0.63137 0.39644,0.8132 1.36677,1.17542 1.45738,2.1776 0.11327,0.8132 0.0277,1.63928 0.0843,2.45678 0.0365,0.71155 0.18878,1.40735 0.26807,2.11317 0.0743,0.66717 0.0604,1.34006 0.0994,2.01009 -0.47572,-0.12599 -0.97536,-0.22907 -1.45612,-0.0745 -0.886,0.23909 -1.76194,0.87047 -2.69828,0.59129 -0.18249,-0.40946 -0.24668,-0.87047 -0.42161,-1.28136 -0.31715,-0.17467 -0.67206,-0.22621 -1.01186,-0.31211 -0.0566,-1.24414 -0.0277,-2.48971 0.0365,-3.73241 0.0176,-0.6686 0.27436,-1.44744 -0.0856,-2.04302 -0.66702,-0.0888 -1.36425,0.18755 -2.00736,-0.13172 -0.47824,-0.14746 -0.68338,-1.05945 -0.21395,-1.35724 0.26052,-0.23909 0.49461,-0.50968 0.70604,-0.80461 0.35239,-0.49106 0.91998,-0.65428 1.35669,-1.02222 z"
       id="path28"
       style="stroke-width:0.09375;stroke-dasharray:none" /><path
       fill="#c9a334"
       stroke="#c9a334"
       stroke-width="0.0125842"
       opacity="1"
       d="m 163.5153,57.237767 c 0.0189,-0.92487 -0.0881,-1.87122 0.14977,-2.77175 0.0239,0.68578 0.0629,1.37013 0.0516,2.05591 -0.0315,2.43387 0.0302,4.86774 -0.0327,7.30161 -0.0151,0.64999 0.0151,1.29997 0.0642,1.94853 1.1503,0.18325 2.31066,0.053 3.46473,0.0888 0.71485,0.0186 1.42717,-0.063 2.12817,-0.21475 0.0126,0.0673 0.0378,0.2033 0.0503,0.27059 -1.73552,0.0616 -3.47229,0.01 -5.2078,0.0386 -0.21898,10e-4 -0.43671,0 -0.65318,10e-4 -0.039,-2.90632 -0.009,-5.81265 -0.0151,-8.71898 z"
       id="path30"
       style="fill:#edaf15;fill-opacity:1;stroke:#edaf15;stroke-opacity:1" /><path
       fill="#da4f2a"
       stroke="#da4f2a"
       stroke-width="0.09375"
       opacity="1"
       d="m 179.14876,56.229857 c 1.96456,-0.0558 3.93038,-0.0114 5.89495,0.0215 -0.0239,2.50832 -0.005,5.01663 -0.0189,7.52495 0.003,0.0587 0.008,0.17753 0.009,0.23766 0.85454,0.17324 1.72796,0.11168 2.59005,0.19328 1.1201,0.10022 2.24774,0.053 3.36028,-0.11597 0.40147,-0.0315 0.84195,-0.14746 1.22077,0.0673 0.28317,0.50539 0.34736,1.12245 0.42664,1.70515 0.0151,1.19402 0.0138,2.38805 0.029,3.58208 -1.21196,0.32499 -2.45287,0.006 -3.67868,0.12312 -1.38438,0.13315 -2.77128,-0.0988 -4.15441,0.0644 -1.20441,0.12742 -2.48434,-0.15462 -3.44837,-1.02366 -0.47195,-0.44096 -0.96403,-0.84899 -1.48003,-1.21836 -0.3612,-0.33502 -0.51726,-0.87047 -0.64311,-1.36154 -0.21269,-1.10097 -0.10572,-2.2363 -0.1334,-3.35158 0.0176,-2.14897 -0.0554,-4.30079 0.0264,-6.44833 z"
       id="path32"
       style="stroke-width:0.08775;stroke-dasharray:none" /><path
       fill="#fbfbf7"
       stroke="#fbfbf7"
       stroke-width="0.0125842"
       opacity="1"
       d="m 185.04371,56.251337 c 1.39697,0 2.79519,0.006 4.19342,-0.003 1.15281,0.0114 2.30814,-0.0573 3.45844,0.0644 -0.0327,2.48971 0.004,4.97941 -0.0252,7.46912 -2.54852,-0.0143 -5.09705,-0.001 -7.64557,-0.006 0.0138,-2.50832 -0.005,-5.01663 0.0189,-7.52495 z"
       id="path34" /><path
       fill="#73bbb3"
       stroke="#73bbb3"
       stroke-width="0.0125842"
       opacity="1"
       d="m 192.69557,56.312897 c 0.0554,0.31784 0.11201,0.63567 0.1548,0.95637 -0.0642,1.2427 -0.0931,2.48827 -0.0365,3.73241 0.3398,0.0859 0.69471,0.13744 1.01186,0.31211 0.17493,0.41089 0.23912,0.8719 0.42161,1.28136 0.93634,0.27918 1.81228,-0.3522 2.69828,-0.59129 0.48076,-0.15462 0.9804,-0.0515 1.45612,0.0745 0.0315,0.53832 0.0768,1.0752 0.1246,1.61208 l 0.009,0.10595 c -1.9545,-0.0458 -3.91026,-0.0243 -5.86475,-0.0143 0.0289,-2.48971 -0.008,-4.97941 0.0252,-7.46912 z"
       id="path36"
       style="fill:#82ccc7;fill-opacity:1" /><path
       fill="#c85536"
       stroke="#c85536"
       stroke-width="0.09375"
       opacity="1"
       d="m 185.03364,64.013947 c -0.001,-0.0601 -0.006,-0.17896 -0.009,-0.23766 2.54852,0.004 5.09705,-0.009 7.64557,0.006 -0.001,0.69437 -0.0302,1.38731 -0.039,2.08168 -0.0793,-0.5827 -0.14347,-1.19976 -0.42664,-1.70515 -0.37882,-0.21475 -0.8193,-0.0988 -1.22077,-0.0673 -1.11254,0.16894 -2.24018,0.21619 -3.36028,0.11597 -0.86209,-0.0816 -1.73551,-0.02 -2.59005,-0.19328 z"
       id="path38"
       style="fill:#da4f2a;fill-opacity:1;stroke-width:0.0033558;stroke-dasharray:none" /><path
       fill="#7b4732"
       stroke="#7b4732"
       stroke-width="0.0125842"
       opacity="1"
       d="m 192.6704,63.782017 c 1.95449,-0.01 3.91025,-0.0315 5.86475,0.0143 0.0528,2.01868 0.0164,4.03879 0.0101,6.0589 -1.95953,-0.0702 -3.92157,0.0115 -5.8811,-0.0358 -0.001,-0.0945 -0.003,-0.28061 -0.004,-0.37367 -0.0151,-1.19403 -0.0138,-2.38806 -0.029,-3.58208 0.009,-0.69437 0.0378,-1.38731 0.039,-2.08168 z"
       id="path40" /><path
       fill="#9ca91b"
       stroke="#9ca91b"
       stroke-width="0.0125842"
       opacity="1"
       d="m 198.53515,63.796337 c 1.05339,-0.053 2.10803,-0.0143 3.16142,-0.0215 0.9955,0.01 1.99351,-0.0387 2.98775,0.0487 0.0138,2.01009 0.004,4.02018 0.0113,6.03027 -1.08234,0.0687 -2.16719,0.02 -3.25078,0.0329 -0.96655,-0.0129 -1.93436,0.0401 -2.89966,-0.0315 0.006,-2.02011 0.0428,-4.04022 -0.0101,-6.0589 z"
       id="path42" /><path
       fill="#2c8f85"
       stroke="#2c8f85"
       stroke-width="0.09375"
       opacity="1"
       d="m 208.20946,64.129917 c 0.18123,-0.004 0.36246,-0.009 0.54369,-0.0129 0.17493,-0.004 0.35113,-0.007 0.52732,-0.0115 0.0806,0 0.24038,-0.001 0.31967,-0.003 -0.30582,0.33931 -0.5311,0.78027 -0.49209,1.28422 -0.004,1.05373 0.034,2.10602 0.009,3.16117 -0.0377,1.15537 0.32219,2.27639 0.24542,3.43319 -0.0667,0.97641 -0.0315,2.01439 -0.45433,2.89917 -0.56508,1.18544 -0.99298,2.51548 -1.9394,3.3931 -0.73372,0.79029 -1.8085,0.78313 -2.67186,1.28136 -0.23786,0.0816 -0.20639,0.41376 -0.12081,0.61849 0.24667,0.60274 0.701,1.12674 1.27489,1.30856 0.70477,0.23767 1.44227,0.0458 2.16341,0.10165 0.87845,0.063 1.78837,-0.0143 2.62655,0.3565 0.63178,-0.90483 1.39948,-1.69369 2.32954,-2.1776 -0.3763,0.94491 -1.08863,1.63069 -1.75817,2.30215 -1.96205,1.87265 -4.50931,2.8147 -7.05154,2.91062 -0.0201,-2.0287 -0.0126,-4.05883 -0.006,-6.08753 0.98543,-0.15606 2.01616,-0.35363 2.83295,-1.05086 1.0773,-0.91772 1.60211,-2.48398 1.61469,-3.98153 0.0277,-3.24134 -0.0226,-6.48412 0.008,-9.72546 z"
       id="path44"
       style="fill:#309a92;fill-opacity:1;stroke:#309a92;stroke-width:0.033558;stroke-dasharray:none;stroke-opacity:1" /><path
       fill="#309a92"
       stroke="#309a92"
       stroke-width="0.09375"
       opacity="1"
       d="m 209.60014,64.102717 c 1.49136,0.0401 2.98271,0.007 4.47407,0.02 0.0189,3.479 -0.005,6.95944 0.006,10.43844 0.0126,1.49469 -0.25674,3.01228 -0.90236,4.32513 -0.16613,0.31784 -0.31463,0.68578 -0.60787,0.8762 -0.93006,0.48391 -1.69776,1.27277 -2.32954,2.1776 -0.83818,-0.37081 -1.7481,-0.2935 -2.62655,-0.3565 -0.72114,-0.0558 -1.45864,0.13602 -2.16341,-0.10165 -0.57389,-0.18182 -1.02822,-0.70582 -1.27489,-1.30856 -0.0856,-0.20473 -0.11705,-0.53688 0.12081,-0.61849 0.86336,-0.49823 1.93814,-0.49107 2.67186,-1.28136 0.94642,-0.87762 1.37432,-2.20766 1.9394,-3.3931 0.42286,-0.88478 0.38762,-1.92276 0.45433,-2.89917 0.0768,-1.1568 -0.28317,-2.27782 -0.24542,-3.43319 0.0252,-1.05515 -0.0126,-2.10744 -0.009,-3.16117 -0.039,-0.50395 0.18627,-0.94491 0.49209,-1.28422 z"
       id="path46"
       style="stroke-width:0.08775;stroke-dasharray:none" /><path
       fill="#607716"
       stroke="#607716"
       stroke-width="0.09375"
       opacity="1"
       d="m 163.5304,65.956747 c 0.21647,-10e-4 0.4342,0 0.65318,-10e-4 -0.17619,1.47751 -0.0919,2.96933 -0.1032,4.45399 0.008,1.37012 -0.0453,2.74168 0.0453,4.11037 0.0529,0.82466 0.0969,1.65217 0.0503,2.47826 -0.13215,2.09885 -0.14347,4.21059 0.029,6.30658 -0.22654,0.003 -0.45308,0.006 -0.67961,0.0115 -0.0151,-5.78689 -0.0189,-11.57377 0.005,-17.35923 z"
       id="path48"
       style="fill:#6a8828;fill-opacity:1;stroke:#6a8828;stroke-width:0.09375;stroke-dasharray:none;stroke-opacity:1" /><path
       fill="#6a8828"
       stroke="#6a8828"
       stroke-width="0.0125842"
       opacity="1"
       d="m 164.18358,65.955317 c 1.73551,-0.0286 3.47228,0.0229 5.2078,-0.0386 l 0.0176,0.10737 c 0.009,0.0945 0.0252,0.28062 0.034,0.37367 -0.029,6.63445 0.004,13.26889 -0.0189,19.90334 -0.004,0.72873 0,1.45603 0.0264,2.18476 -0.20263,-1.70944 0.0352,-3.43892 -0.11453,-5.15265 -1.71034,-0.0487 -3.42068,-0.003 -5.13102,-0.0286 -0.17242,-2.09599 -0.1611,-4.20773 -0.029,-6.30658 0.0466,-0.82609 0.003,-1.6536 -0.0503,-2.47826 -0.0906,-1.36869 -0.0378,-2.74025 -0.0453,-4.11037 0.0113,-1.48466 -0.073,-2.97648 0.1032,-4.45399 z"
       id="path50" /><path
       fill="#999896"
       stroke="#999896"
       stroke-width="0.0125842"
       opacity="1"
       d="m 233.32846,67.156507 c 0.35113,-0.74018 1.10876,-1.15394 1.83493,-1.13819 1.22203,0.007 2.44532,-0.003 3.66736,0.006 0.8709,-0.006 1.81857,0.65285 1.94694,1.69083 0.0919,0.93919 0.0994,1.89269 0.0264,2.83331 -0.0529,0.68005 -0.48327,1.2513 -1.00305,1.55195 -0.49082,0.30352 -1.06471,0.30495 -1.60714,0.30781 -1.13519,-0.01 -2.27039,-0.0673 -3.40432,0 -0.0629,1.27134 0,2.54411 -0.0352,3.81688 -0.52984,0.01 -1.05842,0.0115 -1.58701,0.003 -0.10697,-2.31791 -0.0138,-4.64297 -0.0503,-6.96373 0.0151,-0.7044 -0.0453,-1.44887 0.21144,-2.10745 m 1.72166,0.4023 c -0.26932,0.16035 -0.31966,0.53259 -0.32847,0.8447 -0.0302,0.84756 0,1.69655 -0.009,2.54554 1.12009,0.0473 2.24144,0.0115 3.36279,0.0272 0.4128,0.0115 0.96529,-0.0673 1.10499,-0.59701 0.12082,-0.6958 0.0969,-1.41737 0.0415,-2.12033 -0.0239,-0.45241 -0.39518,-0.79459 -0.77651,-0.82179 -0.75386,-0.083 -1.5115,-0.0129 -2.26662,-0.0315 -0.3763,0.0186 -0.77777,-0.0272 -1.1289,0.15319 z"
       id="path52" /><path
       fill="#999897"
       stroke="#999897"
       stroke-width="0.0125842"
       opacity="1"
       d="m 247.14459,66.848697 c 0.44175,-0.63281 1.17925,-0.86331 1.86514,-0.83325 1.17799,0.0215 2.35471,-0.0143 3.5327,0.01 0.98543,-0.001 1.9482,0.93918 1.96079,2.09026 0.0264,0.71155 0.0302,1.42596 0,2.13751 -0.0315,1.13533 -0.96781,2.10315 -1.95073,2.11604 -1.39445,0.0358 -2.79016,-0.0573 -4.18461,0.0229 -0.0667,1.27134 0.009,2.54555 -0.039,3.81832 -0.52858,0.0358 -1.05842,0.0444 -1.58701,0.0286 -0.0831,-2.3222 -0.004,-4.65012 -0.0403,-6.97375 0.009,-0.8175 -0.0516,-1.74809 0.443,-2.41669 m 1.24846,1.42023 c -0.112,0.89338 -0.0516,1.79963 -0.0226,2.6973 1.05591,0.0186 2.11181,0.0515 3.16772,0.0644 0.443,-0.007 1.05716,-0.0816 1.21071,-0.65142 0.12459,-0.73446 0.1334,-1.50184 0.0264,-2.23773 -0.0944,-0.50109 -0.55878,-0.76452 -0.97913,-0.74018 -0.88223,-0.006 -1.76949,-0.0487 -2.65046,0.0243 -0.39141,0.0258 -0.7073,0.40946 -0.75261,0.84326 z"
       id="path54" /><path
       fill="#989897"
       stroke="#989897"
       stroke-width="0.0125842"
       opacity="1"
       d="m 223.86054,66.412027 c 0.58899,-0.43666 1.329,-0.35219 1.9998,-0.35935 1.68895,0.0344 3.38041,-0.0358 5.06936,0.0372 0.006,0.43094 0.004,0.86188 -0.006,1.29425 -1.64616,-0.0243 -3.29232,-0.0344 -4.93847,-0.0258 -0.38511,0.0243 -0.83063,0.007 -1.12387,0.33931 -0.33603,0.36651 -0.29701,0.93919 -0.31338,1.4231 0.0139,1.38444 0.008,2.76888 0.004,4.15332 0.0201,0.43524 -0.0101,0.9621 0.31337,1.27564 0.29576,0.32356 0.72995,0.34217 1.11758,0.35076 1.64238,-0.007 3.28476,-0.02 4.9284,-0.01 0.0151,0.42378 0.0189,0.85042 0.0151,1.27564 -1.81354,0.0644 -3.62834,-0.01 -5.44188,0.0258 -0.72491,0.0301 -1.51527,-0.12313 -2.02875,-0.75737 -0.5311,-0.60274 -0.48831,-1.51902 -0.49838,-2.30645 0.0176,-1.52904 -0.0226,-3.05952 0.0151,-4.58856 0.0138,-0.80461 0.2517,-1.6851 0.88852,-2.12749 z"
       id="path56" /><path
       fill="#979694"
       stroke="#979694"
       stroke-width="0.0125842"
       opacity="1"
       d="m 242.95243,66.079877 c 0.52103,-0.0401 1.04458,-0.0387 1.56687,0 0.0554,2.77891 -0.008,5.55925 0.0201,8.33815 0.0101,0.60847 -0.001,1.21694 -0.0378,1.82541 -0.51096,0.0186 -1.02192,0.0215 -1.53163,0.004 -0.0793,-2.42242 -0.0151,-4.8477 -0.0365,-7.27011 -0.001,-0.96639 -0.0239,-1.93278 0.0189,-2.89774 z"
       id="path58" /><path
       fill="#999796"
       stroke="#999796"
       stroke-width="0.0125842"
       opacity="1"
       d="m 257.27702,66.489337 c 0.7161,-0.54547 1.61972,-0.41089 2.43777,-0.42091 1.58323,0.0444 3.16772,-0.0515 4.74969,0.053 -10e-4,0.41662 -0.004,0.83467 -0.004,1.25273 -1.7934,0.0573 -3.59058,-0.007 -5.38399,0.004 -0.3549,-0.004 -0.74253,0.16894 -0.886,0.56122 -0.10698,0.38083 -0.0768,0.786 -0.0818,1.17971 0.0176,1.38731 0.0101,2.77319 -0.001,4.16049 0.0101,0.41233 -0.0214,0.90912 0.28821,1.20405 0.37126,0.44526 0.94767,0.4109 1.44353,0.40517 1.55177,-0.0558 3.10479,-0.0114 4.65656,-0.003 0.0101,0.42521 0.0138,0.85185 0.0151,1.27706 -1.80725,0.0644 -3.61701,-0.01 -5.42426,0.0301 -0.7891,0.0472 -1.64112,-0.16894 -2.17348,-0.87763 -0.4279,-0.50252 -0.44174,-1.23984 -0.43671,-1.89555 0.0126,-1.67365 -0.006,-3.34872 0.009,-5.0238 -0.008,-0.72443 0.22276,-1.51043 0.79162,-1.90701 z"
       id="path60" /><path
       fill="#c25c3e"
       stroke="#c25c3e"
       stroke-width="0.09375"
       opacity="1"
       d="m 179.89884,67.391307 c 0.516,0.36937 1.00808,0.7774 1.48003,1.21836 0.96403,0.86904 2.24396,1.15108 3.44837,1.02366 1.38313,-0.16321 2.77003,0.0687 4.15441,-0.0644 1.22581,-0.11739 2.46672,0.20187 3.67868,-0.12312 0.001,0.0931 0.003,0.27918 0.004,0.37367 v 0.13028 c -2.82163,-0.0773 -5.64577,-0.006 -8.46739,-0.0315 -1.28622,-0.006 -2.55356,-0.55979 -3.5478,-1.47751 -0.31589,-0.28347 -0.55627,-0.65428 -0.75008,-1.04942 z"
       id="path62"
       style="fill:#da4f2a;fill-opacity:1;stroke-width:0.0033558;stroke-dasharray:none" /><path
       fill="#fdfdfb"
       stroke="#fdfdfb"
       stroke-width="0.0125842"
       opacity="1"
       d="m 235.05012,67.558807 c 0.35113,-0.18039 0.7526,-0.13457 1.1289,-0.15319 0.75512,0.0186 1.51276,-0.0515 2.26662,0.0315 0.38133,0.0272 0.7526,0.36938 0.77651,0.82179 0.0554,0.70296 0.0793,1.42453 -0.0415,2.12033 -0.1397,0.52973 -0.69219,0.60847 -1.10499,0.59701 -1.12135,-0.0157 -2.2427,0.02 -3.36279,-0.0272 0.009,-0.84899 -0.0214,-1.69798 0.009,-2.54554 0.009,-0.31211 0.0591,-0.68435 0.32847,-0.8447 z"
       id="path64" /><path
       fill="#fdfdfb"
       stroke="#fdfdfb"
       stroke-width="0.0125842"
       opacity="1"
       d="m 248.39305,68.268927 c 0.0453,-0.4338 0.3612,-0.81749 0.75261,-0.84326 0.88097,-0.073 1.76823,-0.0301 2.65046,-0.0243 0.42035,-0.0243 0.88474,0.23909 0.97913,0.74018 0.10698,0.73589 0.0982,1.50327 -0.0264,2.23773 -0.15355,0.56981 -0.76771,0.64426 -1.21071,0.65142 -1.05591,-0.0129 -2.11181,-0.0458 -3.16772,-0.0644 -0.029,-0.89767 -0.0893,-1.80392 0.0226,-2.6973 z"
       id="path66" /><path
       fill="#60517c"
       stroke="#60517c"
       stroke-width="0.09375"
       opacity="1"
       d="m 192.66411,69.819447 c 1.95953,0.0472 3.92157,-0.0344 5.8811,0.0358 -0.0478,2.81184 0.003,5.62368 -0.0289,8.43551 -0.0415,2.10315 -1.32523,4.05025 -3.03306,4.80618 -0.82056,0.38942 -1.72293,0.39371 -2.59634,0.38226 -6.63875,-0.0229 -13.27749,0.009 -19.91624,-0.001 0.0806,-1.01936 0.0101,-2.04159 0.0415,-3.06238 0,-0.3522 0.17997,-0.64999 0.33476,-0.93919 0.21395,1.15108 -0.0491,2.33508 0.17494,3.48616 0.74002,0.0787 1.48507,0.0716 2.22634,-0.006 1.16036,-0.11596 2.32324,0.0472 3.48613,0.0157 1.53414,-0.001 3.05696,-0.27774 4.59111,-0.25341 0.9225,0.01 1.84626,0.009 2.76877,-0.003 1.26104,-0.0215 2.51454,0.2033 3.77559,0.15892 1.70153,-0.0515 3.42823,0.14746 5.10585,-0.26916 0.38511,-0.10881 0.83944,-0.26629 0.99046,-0.73446 0.17242,-0.46959 0.40399,-0.90769 0.74254,-1.24843 0.51473,-0.52829 0.66953,-1.32431 0.86461,-2.04731 0.18122,-0.65572 0.0327,-1.34149 0.005,-2.00723 -0.0868,-1.37585 0.11453,-2.75457 -0.0315,-4.12613 -0.0667,-0.68291 -0.16235,-1.3601 -0.26304,-2.03586 -0.9527,0.0644 -1.91925,0.21619 -2.86441,-0.0186 -0.58144,-0.14603 -1.18302,-0.13601 -1.76446,0.01 -0.0138,1.72232 -0.0893,3.44465 -0.0239,5.16697 0.0164,0.60131 -0.0717,1.19689 -0.1699,1.78531 -0.078,0.0172 -0.23409,0.0515 -0.31212,0.0687 0.0378,-2.4897 0.006,-4.97941 0.0151,-7.46912 z"
       id="path68"
       style="fill:#64518c;fill-opacity:1;stroke:#64518c;stroke-width:0.0033558;stroke-dasharray:none;stroke-opacity:1" /><path
       fill="#64518c"
       stroke="#64518c"
       stroke-width="0.09375"
       opacity="1"
       d="m 193.15493,70.397847 c 0.58144,-0.14603 1.18302,-0.15605 1.76446,-0.01 0.94516,0.2348 1.91171,0.083 2.86441,0.0186 0.10069,0.67576 0.19633,1.35295 0.26304,2.03586 0.14599,1.37156 -0.0554,2.75028 0.0315,4.12613 0.0277,0.66574 0.17619,1.35151 -0.005,2.00723 -0.19508,0.723 -0.34988,1.51902 -0.86461,2.04731 -0.33855,0.34074 -0.57012,0.77884 -0.74254,1.24843 -0.15102,0.46817 -0.60535,0.62565 -0.99046,0.73446 -1.67762,0.41662 -3.40432,0.21762 -5.10585,0.26916 -1.26105,0.0444 -2.51455,-0.18039 -3.77559,-0.15892 -0.92251,0.0114 -1.84627,0.0129 -2.76877,0.003 -1.53415,-0.0243 -3.05697,0.25198 -4.59111,0.25341 -1.16289,0.0315 -2.32577,-0.13171 -3.48613,-0.0157 -0.74127,0.0773 -1.48632,0.0845 -2.22634,0.006 -0.22402,-1.15108 0.039,-2.33508 -0.17494,-3.48616 -0.15479,0.2892 -0.33476,0.58699 -0.33476,0.93919 -0.0315,1.02079 0.039,2.04302 -0.0415,3.06238 -0.0906,-1.99864 -0.0264,-4.003 -0.0491,-6.0045 6.1089,0.009 12.21907,0.003 18.32923,0.004 0.46565,0.001 0.93634,0.0401 1.39822,-0.0587 0.078,-0.0172 0.23409,-0.0515 0.31212,-0.0687 0.0982,-0.58842 0.18626,-1.184 0.1699,-1.78531 -0.0654,-1.72232 0.0101,-3.44465 0.0239,-5.16697 z"
       id="path70"
       style="stroke-width:0.09375;stroke-dasharray:none" /><path
       fill="#787674"
       stroke="#787674"
       stroke-width="0.0125842"
       opacity="1"
       d="m 250.2217,82.903647 c 0.25045,0.006 0.50215,0.0115 0.75386,0.0157 0.0491,0.19757 0.0994,0.39658 0.14976,0.59415 1.12639,0.0902 2.27165,-0.11453 3.38419,0.13028 0.69597,0.21762 0.67079,1.14106 0.65066,1.79821 -0.27184,-0.004 -0.54369,0.003 -0.81301,-0.0315 -0.13341,-0.29493 -0.1699,-0.62851 -0.22905,-0.94778 -1.19309,-0.12456 -2.39373,-0.0243 -3.58933,-0.0444 -1.16162,0.0673 -2.3245,-0.10308 -3.48235,0.0329 -0.0453,0.30495 -0.0881,0.61276 -0.13089,0.91914 -0.26681,0.0114 -0.53362,0.0243 -0.79791,0.0387 -0.0176,-0.44096 -0.11704,-0.92058 0.0579,-1.33577 0.22527,-0.43523 0.70477,-0.52686 1.11128,-0.56122 0.93005,-0.0616 1.86388,0.0415 2.79393,-0.0616 0.0453,-0.18326 0.0919,-0.36508 0.14096,-0.54691 z"
       id="path72" /><path
       fill="#7c7674"
       stroke="#7c7674"
       stroke-width="0.0125842"
       opacity="1"
       d="m 224.89882,83.081177 c 0.56383,-0.13315 1.14401,-0.073 1.71664,-0.0802 1.51149,-0.001 3.02173,0.0272 4.53322,0 0.47573,0.0129 1.03703,-0.01 1.39319,0.41662 0.29953,0.39658 0.26178,0.96352 0.28569,1.45173 -0.009,1.52761 -0.008,3.05379 0.001,4.57997 -0.0176,0.51827 0.005,1.12245 -0.34484,1.51616 -0.37126,0.45384 -0.95648,0.44096 -1.45738,0.44955 -1.85003,-0.0229 -3.70133,-0.001 -5.55137,-0.007 -0.42161,0.009 -0.87216,-0.11453 -1.144,-0.50682 -0.37504,-0.46959 -0.31464,-1.14964 -0.32722,-1.7352 0.0201,-1.57772 -0.0101,-3.15544 0.0164,-4.73173 -0.0164,-0.60847 0.34861,-1.21121 0.87845,-1.35295 m 0.14473,0.86045 c -0.17241,1.49468 -0.0642,3.00511 -0.10445,4.50695 0.0176,0.63567 -0.068,1.30427 0.13466,1.91131 0.51222,0.28061 1.11632,0.12885 1.66755,0.16178 1.70531,-0.0673 3.41817,0.0873 5.11718,-0.10595 0.0654,-1.60779 0.005,-3.21843 0.0252,-4.82765 0.009,-0.54834 -0.008,-1.09668 -0.0478,-1.64215 -0.98543,-0.0659 -1.97086,-0.009 -2.95503,-0.0258 -1.27866,0.0129 -2.55859,-0.0501 -3.83726,0.0215 z"
       id="path76" /><path
       fill="#7c7575"
       stroke="#7c7575"
       stroke-width="0.0125842"
       opacity="1"
       d="m 238.97674,83.048247 c 1.72041,-0.0243 3.44207,-0.02 5.16374,-0.001 -0.009,0.2076 -0.008,0.41805 -0.0315,0.62565 -0.15228,0.19328 -0.34358,0.33931 -0.49964,0.52543 -0.12459,0.77168 -0.0491,1.56197 -0.005,2.33795 0.19255,0.0873 0.38511,0.17752 0.57892,0.26772 0.001,0.22621 0.004,0.45241 0.009,0.68005 -0.18626,0.0473 -0.37252,0.0945 -0.55627,0.14174 -0.10949,1.24414 -0.0315,2.49257 -0.0226,3.73814 -0.31086,0.007 -0.62046,0.01 -0.9288,0.01 -0.044,-1.28852 0.0151,-2.57847 -0.006,-3.86842 -0.64185,-10e-4 -1.2837,0.001 -1.92429,0.003 -0.0239,0.77025 0.068,1.56054 -0.10949,2.31504 -0.2945,0.85615 -0.97285,1.57343 -1.7997,1.67365 0.0529,-0.33645 0.0503,-0.72587 0.29072,-0.97498 0.23031,-0.33931 0.64311,-0.58986 0.64185,-1.06948 0.044,-0.6056 0.0138,-1.21407 0.006,-1.81967 -0.24667,-0.0659 -0.49208,-0.13315 -0.73749,-0.19901 -0.009,-0.23622 -0.0176,-0.47102 -0.0239,-0.70439 0.25171,-0.0286 0.50593,-0.0544 0.76016,-0.0787 0.006,-0.8991 0.0138,-1.7982 0,-2.69587 -0.26807,-0.0344 -0.53488,-0.0687 -0.79917,-0.10451 -0.004,-0.26773 -0.005,-0.53545 -0.006,-0.80175 m 1.76949,0.94205 c -0.004,0.89338 -0.003,1.78675 0.0138,2.67869 0.61291,0.006 1.22581,0.009 1.83871,0.004 0.078,-0.89624 0.0629,-1.79677 0.0239,-2.69444 -0.62423,-0.0515 -1.25224,-0.0515 -1.87647,0.0114 z"
       id="path78" /><path
       fill="#7a7473"
       stroke="#7a7473"
       stroke-width="0.0125842"
       opacity="1"
       d="m 258.01325,83.043957 c 0.26304,-0.006 0.52733,-0.0115 0.79288,-0.0157 0.0226,0.33215 0.044,0.6643 0.0667,0.99789 0.78658,0.053 1.57694,0.053 2.36604,0 0.0164,-0.34504 0.0327,-0.68865 0.0491,-1.03225 0.29324,0 0.58647,10e-4 0.88097,0.004 0.0151,0.34647 0.0315,0.69294 0.0516,1.03941 1.33278,0.0659 2.66808,0.003 4.00212,0.0243 -0.001,0.29922 -0.003,0.59844 -0.001,0.89767 -1.34033,0.0114 -2.68192,-0.0472 -4.02226,0.02 -0.0403,0.69007 -0.0403,1.38158 10e-4,2.07165 1.25979,0.0659 2.51958,-0.006 3.78063,0.0172 -10e-4,0.30066 -10e-4,0.60274 0,0.90483 -1.25979,0.0272 -2.51958,-0.0415 -3.77937,0.0143 -0.044,0.85472 -0.0491,1.7123 0.0139,2.56701 1.33404,0.0301 2.67311,-0.0744 4.00589,0.0458 -10e-4,0.26916 0,0.54118 0.003,0.8132 -3.00788,0.003 -6.01703,0.0114 -9.02491,0.006 -0.0126,-0.27488 -0.0252,-0.5512 -0.034,-0.82608 1.35795,-0.0745 2.71842,0.006 4.07889,-0.0315 0.0491,-0.85471 0.0478,-1.7123 0.004,-2.56701 -1.28622,-0.0773 -2.5737,0.0129 -3.85991,-0.0515 0.009,-0.26916 0.0164,-0.53689 0.0277,-0.80318 1.26986,-0.0873 2.54223,-0.0172 3.81335,-0.0358 0.068,-0.70153 0.068,-1.41022 0.0214,-2.11461 -0.83818,-0.0172 -1.68517,-0.11883 -2.51706,0.009 -0.49837,0.43094 -0.82685,1.15824 -1.51527,1.2513 -0.0843,-0.262 -0.16738,-0.52257 -0.25044,-0.78314 0.28694,-0.28777 0.63681,-0.54833 0.77148,-0.97784 0.14724,-0.4653 0.19758,-0.96066 0.27435,-1.44457 z"
       id="path80" /><path
       fill="#7b7374"
       stroke="#7b7374"
       stroke-width="0.0125842"
       opacity="1"
       d="m 234.94063,83.125557 c 1.18302,-0.0616 2.36981,-0.0429 3.55283,-0.004 -0.008,0.28061 -0.0151,0.56265 -0.0239,0.84326 -0.51348,0 -1.02444,0.01 -1.53667,0.0243 -0.13843,0.53116 -0.24163,1.07377 -0.31085,1.6221 0.51725,0.053 1.10373,-0.0744 1.56183,0.27059 0.40651,0.31354 0.33981,0.93203 0.35239,1.41738 -0.0327,1.04656 0.0189,2.09599 -0.0302,3.14112 -0.0164,0.61849 -0.54998,1.05659 -1.06346,1.06804 -0.55501,0.0358 -1.19812,0.0959 -1.66126,-0.3207 -0.27688,-0.2348 -0.31212,-0.64999 -0.31463,-1.01077 -0.009,-0.76595 0.0252,-1.53191 -0.0176,-2.29786 -0.22276,-0.0387 -0.44426,-0.0773 -0.66451,-0.11597 0.15103,-0.76595 0.58396,-1.39876 0.80672,-2.13465 0.16109,-0.49965 0.25926,-1.02079 0.34484,-1.54336 -0.33603,-0.0243 -0.6708,-0.0386 -1.00431,-0.063 0.003,-0.29922 0.005,-0.59701 0.009,-0.89624 m 1.57694,3.54486 c -0.24919,1.24271 -0.0982,2.54125 -0.12082,3.8083 0.3612,0.17037 0.75134,0.20043 1.13016,0.0888 0.11327,-0.94062 0.078,-1.89126 0.0856,-2.83761 0.003,-0.41375 -0.0617,-0.82035 -0.14851,-1.2198 -0.31589,0.0301 -0.66324,-0.0344 -0.94641,0.16035 z"
       id="path82" /><path
       fill="#7cab26"
       stroke="#7cab26"
       stroke-width="0.0125842"
       opacity="1"
       d="m 163.52537,83.315977 c 0.22653,-0.006 0.45307,-0.009 0.67961,-0.0115 1.71034,0.0258 3.42068,-0.02 5.13102,0.0286 0.14977,1.71373 -0.0881,3.44321 0.11453,5.15265 0.2517,1.34578 1.02696,2.53122 2.05895,3.24134 0.73498,0.55836 1.61973,0.73159 2.44407,1.04799 -0.003,1.95283 0,3.90565 0.006,5.85847 -1.09744,0.0515 -2.17348,-0.26343 -3.22561,-0.58413 -2.99782,-0.93202 -5.60298,-3.49475 -6.75201,-6.79193 -0.38134,-1.0709 -0.50719,-2.23486 -0.47573,-3.38164 0.0138,-1.52046 -0.0176,-3.04091 0.0189,-4.55993 z"
       id="path84" /><path
       fill="#fcfbfa"
       stroke="#fcfbfa"
       stroke-width="0.0125842"
       opacity="1"
       d="m 225.04355,83.941627 c 1.27867,-0.0716 2.5586,-0.009 3.83726,-0.0215 0.98417,0.0172 1.9696,-0.0401 2.95503,0.0258 0.0403,0.54547 0.0566,1.09381 0.0478,1.64215 -0.0201,1.60922 0.0403,3.21986 -0.0252,4.82765 -1.69901,0.19328 -3.41187,0.0387 -5.11718,0.10595 -0.55123,-0.0329 -1.15533,0.11883 -1.66755,-0.16178 -0.20262,-0.60704 -0.11704,-1.27564 -0.13466,-1.91131 0.0403,-1.50184 -0.068,-3.01227 0.10445,-4.50695 m 0.5311,0.50109 c -0.001,0.28061 0.001,0.56122 0.004,0.84183 0.80546,0.0415 1.61092,-0.0143 2.41764,0.0186 0.004,0.42378 0.004,0.84756 0,1.27134 -0.79917,0.0358 -1.59834,-0.003 -2.3975,0.0243 -0.004,0.29206 -0.006,0.58556 -0.006,0.88049 0.78658,0.0544 1.57568,0.0301 2.36352,0.0172 0.006,0.50825 0.006,1.01793 0.003,1.52761 -0.81301,0.0744 -1.62728,0.0229 -2.44155,0.0429 -0.001,0.262 -0.003,0.524 -0.003,0.786 1.93687,0.1131 3.8813,0.0687 5.82069,0.0229 0.029,-0.4023 -0.12207,-0.74591 -0.47194,-0.8676 -0.0503,-0.22334 -0.0944,-0.44812 -0.13844,-0.67146 -0.27562,-0.0157 -0.54998,-0.0315 -0.82308,-0.0473 -0.039,0.26487 -0.0742,0.53116 -0.10949,0.79889 -0.29198,0.009 -0.5827,0.02 -0.87342,0.0344 -0.0176,-0.54405 -0.0164,-1.08952 -0.003,-1.63499 0.77525,-0.003 1.55051,0.0286 2.3245,-0.0401 -0.001,-0.28061 -0.003,-0.55979 -0.001,-0.8404 -0.77652,-0.0644 -1.55429,-0.0415 -2.3308,-0.0558 -0.004,-0.41805 -0.005,-0.8361 -0.004,-1.25416 0.79665,-0.0544 1.5933,-0.009 2.39121,-0.0129 -0.004,-0.27059 -0.008,-0.53975 -0.0101,-0.81034 -1.90415,0.009 -3.80831,-0.0744 -5.71121,-0.0315 z"
       id="path86" /><path
       fill="#fdfcfb"
       stroke="#fdfcfb"
       stroke-width="0.0125842"
       opacity="1"
       d="m 240.74623,83.990297 c 0.62423,-0.063 1.25224,-0.063 1.87647,-0.0114 0.039,0.89767 0.0541,1.7982 -0.0239,2.69444 -0.6129,0.004 -1.2258,10e-4 -1.83871,-0.004 -0.0164,-0.89194 -0.0176,-1.78531 -0.0138,-2.67869 z"
       id="path88" /><path
       fill="#767372"
       stroke="#767372"
       stroke-width="0.0125842"
       opacity="1"
       d="m 225.57465,84.442717 c 1.9029,-0.0429 3.80706,0.0401 5.71121,0.0315 0.003,0.27059 0.006,0.53975 0.0101,0.81034 -0.79791,0.004 -1.59456,-0.0415 -2.39121,0.0129 -0.001,0.41806 0,0.83611 0.004,1.25416 0.77651,0.0143 1.55428,-0.009 2.3308,0.0558 -0.001,0.28061 0,0.55979 0.001,0.8404 -0.77399,0.0687 -1.54925,0.0372 -2.3245,0.0401 -0.0138,0.54547 -0.0151,1.09094 0.003,1.63499 0.29072,-0.0143 0.58144,-0.0258 0.87342,-0.0344 0.0352,-0.26773 0.0705,-0.53402 0.10949,-0.79889 0.2731,0.0157 0.54746,0.0315 0.82308,0.0473 0.0441,0.22334 0.0881,0.44812 0.13844,0.67146 0.34987,0.12169 0.50089,0.4653 0.47194,0.8676 -1.93939,0.0458 -3.88382,0.0902 -5.82069,-0.0229 0,-0.262 0.001,-0.524 0.003,-0.786 0.81427,-0.02 1.62854,0.0315 2.44155,-0.0429 0.004,-0.50968 0.004,-1.01936 -0.003,-1.52761 -0.78784,0.0129 -1.57694,0.0372 -2.36352,-0.0172 0,-0.29493 0.003,-0.58843 0.006,-0.88049 0.79916,-0.0272 1.59833,0.0115 2.3975,-0.0243 0.004,-0.42378 0.004,-0.84756 0,-1.27134 -0.80672,-0.0329 -1.61218,0.0229 -2.41764,-0.0186 -0.003,-0.28061 -0.005,-0.56122 -0.004,-0.84183 m 4.58609,4.12899 c -0.17116,0.0601 -0.0944,0.40087 0.0843,0.33215 0.1699,-0.0616 0.0931,-0.40231 -0.0843,-0.33215 z"
       id="path90" /><path
       fill="#fdfdfd"
       stroke="#fdfdfd"
       stroke-width="0.0125842"
       opacity="1"
       d="m 214.04023,84.872217 c 0.95648,-0.10737 1.91926,-0.0816 2.87826,-0.0286 0.0554,1.61351 0.0755,3.23418 -0.0101,4.84627 -0.86587,-0.0186 -1.73551,0.0501 -2.59761,-0.0286 -0.28694,-0.01 -0.39643,-0.37224 -0.42412,-0.6414 -0.0743,-0.80747 -0.0151,-1.62067 -0.0378,-2.431 -0.0214,-0.58127 0.0327,-1.16253 0.1913,-1.7166 z"
       id="path92" /><path
       fill="#fefdfb"
       stroke="#fefdfb"
       stroke-width="0.0125842"
       opacity="1"
       d="m 217.90895,84.843587 c 0.8042,-0.0329 1.61344,-0.083 2.41764,-0.0157 0.21772,0.0243 0.51473,0.0916 0.57389,0.37797 0.12711,0.68864 0.0642,1.39876 0.0768,2.09742 -0.0176,0.64569 0.0453,1.30856 -0.0956,1.9428 -0.068,0.28348 -0.32596,0.42092 -0.56634,0.42235 -0.79413,0.053 -1.59078,-0.004 -2.38491,0.0143 -0.0831,-1.61065 -0.0529,-3.22846 -0.0214,-4.83911 z"
       id="path94" /><path
       fill="#757170"
       stroke="#757170"
       stroke-width="0.0125842"
       opacity="1"
       d="m 247.95257,85.516477 c 0.50845,-0.40087 1.09114,-0.69437 1.72544,-0.64855 -0.66072,1.47607 -2.21627,2.13465 -3.60443,2.06879 0.003,-0.30209 0.009,-0.60417 0.0164,-0.90626 0.63933,-0.0458 1.32145,-0.0687 1.86262,-0.51398 z"
       id="path96" /><path
       fill="#787272"
       stroke="#787272"
       stroke-width="0.0125842"
       opacity="1"
       d="m 251.72061,84.855037 c 0.2517,0.0215 0.52355,-0.0215 0.76644,0.0902 0.41783,0.27488 0.71359,0.786 1.20693,0.91485 0.47573,0.12885 0.96907,0.1403 1.45486,0.19614 -0.003,0.31211 -0.004,0.62422 -0.004,0.93776 -1.03074,-0.0243 -2.1609,-0.18183 -2.95,-1.01221 -0.29072,-0.2849 -0.38637,-0.72157 -0.47446,-1.12674 z"
       id="path98" /><path
       fill="#787373"
       stroke="#787373"
       stroke-width="0.0125842"
       opacity="1"
       d="m 248.27098,86.714807 c 0.33728,-0.11168 0.6796,-0.20044 1.02696,-0.27346 -0.029,0.41806 -0.0654,0.83611 -0.10572,1.25416 1.32649,0.0115 2.65424,-0.0229 3.98199,-0.0114 0.2882,0.0301 0.63178,-0.009 0.86587,0.22191 0.17619,0.85615 0.0378,1.75239 0.15102,2.62142 0.34106,0.0229 0.68338,0.0387 1.0257,0.0673 0,0.29923 0,0.59988 0,0.90053 -0.61919,-0.0487 -1.37683,0.007 -1.81983,-0.58269 -0.27184,-0.71585 -0.11453,-1.53334 -0.14222,-2.29214 -1.48506,-0.0659 -2.9739,-0.0773 -4.45771,0 -0.28946,0.68578 -0.57766,1.40449 -1.08611,1.92133 -0.45936,0.49536 -1.0471,0.78743 -1.62979,1.0437 -0.0189,-0.2577 -0.0466,-0.51541 -0.0302,-0.77311 0.26052,-0.33215 0.61165,-0.54691 0.89482,-0.85186 0.36119,-0.36794 0.58899,-0.8633 0.81552,-1.34149 -0.55627,-0.0172 -1.11254,-0.0258 -1.66881,-0.0386 0.001,-0.29493 0.003,-0.58843 0.006,-0.88192 0.69093,-0.0258 1.38438,-0.0143 2.07783,-0.0329 0.0315,-0.31641 0.0629,-0.63424 0.0944,-0.95064 z"
       id="path100" /><path
       fill="#fcfcfa"
       stroke="#fcfcfa"
       stroke-width="0.0125842"
       opacity="1"
       d="m 236.51757,86.670417 c 0.28317,-0.19471 0.63052,-0.13028 0.94641,-0.16035 0.0868,0.39945 0.15103,0.80605 0.14851,1.2198 -0.008,0.94635 0.0277,1.89699 -0.0856,2.83761 -0.37882,0.11167 -0.76896,0.0816 -1.13016,-0.0888 0.0226,-1.26705 -0.12837,-2.56559 0.12082,-3.8083 z"
       id="path102" /><path
       fill="#c6c2c2"
       stroke="#c6c2c2"
       stroke-width="0.0125842"
       opacity="1"
       d="m 230.16074,88.571707 c 0.17745,-0.0702 0.25422,0.27059 0.0843,0.33215 -0.17871,0.0687 -0.25548,-0.27202 -0.0843,-0.33215 z"
       id="path104"
       style="fill:#767372;fill-opacity:1;stroke:#767372;stroke-opacity:1" /><path
       fill="#747371"
       stroke="#747371"
       stroke-width="0.0125842"
       opacity="1"
       d="m 192.66411,94.272687 c 0.10949,-0.25055 0.24037,-0.57697 0.5399,-0.50252 0.3826,-0.0487 0.45433,0.5784 0.82308,0.57697 0.49461,0.0501 0.99298,0.0143 1.48884,0.0172 0.001,0.27345 0.003,0.5469 0.005,0.82179 -1.60085,0.0673 -3.20296,0.0157 -4.80381,0.003 -0.001,-0.2935 -0.001,-0.58556 0,-0.87619 0.6494,-0.0129 1.2988,0.01 1.94695,-0.0401 z"
       id="path106" /><path
       fill="#797373"
       stroke="#797373"
       stroke-width="0.0125842"
       opacity="1"
       d="m 206.06619,93.787347 c 0.40273,-0.0802 0.74379,0.0945 1.00179,0.44239 1.04835,0.22334 2.16467,-0.16608 3.19666,0.2305 0.52607,0.23623 0.71107,0.89194 0.81049,1.46891 -0.30708,0.0115 -0.61667,0.053 -0.91998,-0.007 -0.23283,-0.14031 -0.31967,-0.45958 -0.46817,-0.69151 -2.21627,-0.0286 -4.43632,-0.0473 -6.65259,0.0143 -0.10068,0.2262 -0.1913,0.45957 -0.32093,0.66716 -0.28568,0.13172 -0.60661,0.0773 -0.9074,0.10022 0.0164,-0.61133 0.1611,-1.34579 0.72995,-1.57915 1.02696,-0.30352 2.10175,0.02 3.14003,-0.16608 0.14851,-0.13887 0.26429,-0.31497 0.39015,-0.47961 z"
       id="path108" /><path
       fill="#76716e"
       stroke="#76716e"
       stroke-width="0.0125842"
       opacity="1"
       d="m 181.62806,93.984917 c 0.69848,-0.15749 1.43346,-0.18469 2.13195,-0.0186 0.67079,0.18469 0.886,1.02652 1.22581,1.61065 0.22653,0.0444 0.45558,0.0859 0.68338,0.13171 0.0113,0.24339 0.0226,0.48678 0.034,0.73016 -0.43042,-0.0329 -0.89356,0.0229 -1.29125,-0.19757 -0.35868,-0.38655 -0.4795,-0.98643 -0.86335,-1.34435 -0.56005,-0.12027 -1.14652,-0.11024 -1.70531,0.007 -0.3096,0.38799 -0.40525,0.95637 -0.76896,1.29425 -0.40903,0.27918 -0.90615,0.28777 -1.36551,0.37367 0.001,-0.28204 0.004,-0.56265 0.008,-0.84326 0.25045,-0.0616 0.50845,-0.10452 0.74505,-0.22335 0.41406,-0.47818 0.51348,-1.35437 1.16666,-1.52045 z"
       id="path112" /><path
       fill="#79736f"
       stroke="#79736f"
       stroke-width="0.0125842"
       opacity="1"
       d="m 187.86407,93.927647 c 0.28569,0 0.57263,-10e-4 0.85958,-10e-4 0.0743,1.99005 -0.0138,3.98296 0.0264,5.97587 -0.0214,0.671463 0.0529,1.476073 -0.40525,1.992913 -0.5764,0.55979 -1.39067,0.47675 -2.09671,0.44669 0.003,-0.31354 0.005,-0.62708 0.008,-0.93919 0.51222,0.0172 1.0257,-0.0143 1.53037,-0.12169 0.0906,-2.449623 -0.0315,-4.903543 0.078,-7.353163 z"
       id="path114" /><path
       fill="#7b7372"
       stroke="#7b7372"
       stroke-width="0.0125842"
       opacity="1"
       d="m 196.07472,95.171787 c -0.0252,-0.63281 0.45433,-1.16253 0.99172,-1.2155 0.91873,-0.0902 1.84501,-0.0186 2.76751,-0.0229 -0.005,0.30209 -0.0101,0.60417 -0.0164,0.90626 -0.91999,0.0129 -1.84123,-0.0444 -2.7587,0.0544 -0.0302,0.4653 -0.0428,0.93203 -0.0378,1.39876 0.96152,0.0215 1.9243,-0.0616 2.8833,0.0515 -0.005,0.24625 -0.008,0.49394 -0.0101,0.74162 -0.19885,0.0401 -0.3977,0.083 -0.59529,0.12599 -0.0831,1.74236 -0.004,3.489023 -0.0302,5.232823 -0.30834,0 -0.61668,0 -0.92502,0 -0.0113,-1.76527 0.0352,-3.530553 -0.0201,-5.294393 -0.42538,-0.0172 -0.85202,-0.0186 -1.27615,-10e-4 -0.0352,1.15824 -0.005,2.31791 -0.039,3.477573 -0.0164,0.45242 -0.0592,0.94349 -0.32596,1.30284 -0.1913,0.28347 -0.51096,0.37224 -0.78532,0.50395 -0.29576,-0.67003 0.24164,-1.2742 0.18878,-1.95282 -0.005,-1.769573 -0.029,-3.540563 -0.0113,-5.308703 z"
       id="path116" /><path
       fill="#7a7373"
       stroke="#7a7373"
       stroke-width="0.0125842"
       opacity="1"
       d="m 212.9881,94.808137 c 0.0906,-0.61276 0.67205,-0.89051 1.16288,-0.91342 0.5978,-0.0329 1.24972,-0.0888 1.79718,0.24053 0.45307,0.28777 0.47195,0.94491 0.49712,1.46462 -0.001,0.52686 0.0453,1.08951 -0.14851,1.58201 -0.30708,0.28348 -0.72365,0.33358 -1.08862,0.47818 -0.005,0.3565 -0.0101,0.71442 -0.0151,1.07234 0.37505,0.0286 0.75009,0.053 1.12639,0.0759 0.004,0.27202 0.008,0.54547 0.0126,0.81892 -0.37504,0.0201 -0.74882,0.0344 -1.12386,0.0487 -0.0113,0.585563 -0.0139,1.171123 -0.006,1.756683 0.3977,0.0229 0.79665,0.0473 1.19435,0.0745 -0.003,0.27918 -0.005,0.55836 -0.005,0.83897 -0.78784,0.0601 -1.57945,0.0673 -2.36729,0.0286 -0.33477,-0.0272 -0.71862,-0.0673 -0.94767,-0.38083 -0.21773,-0.30209 -0.20263,-0.71871 -0.2215,-1.08522 -0.0101,-0.924873 -0.004,-1.849753 0.0289,-2.771753 0.28946,0 0.57893,0.004 0.86965,0.01 0.0226,1.10526 -0.0302,2.211963 0.039,3.315793 0.16487,0.0129 0.33225,0.0215 0.49964,0.0258 0.0327,-1.26561 0.0302,-2.535523 -0.0491,-3.798273 -0.43167,-0.16035 -1.05339,-0.18898 -1.23965,-0.74734 -0.11201,-0.70153 -0.0982,-1.43026 -0.0151,-2.13465 m 1.00053,0.0358 c -0.18123,0.59702 -0.11201,1.23985 -0.078,1.8569 0.49586,0.0129 0.99298,0.0157 1.4901,0.007 0.0705,-0.6328 0.0705,-1.27134 -0.0252,-1.89985 -0.4581,-0.0329 -0.95145,-0.18898 -1.3869,0.0358 z"
       id="path118" /><path
       fill="#777271"
       stroke="#777271"
       stroke-width="0.0125842"
       opacity="1"
       d="m 217.95929,93.853207 c 0.32219,-10e-4 0.64563,0 0.97033,0.006 0.10571,0.4696 0.21395,0.93919 0.31715,1.41022 0.91998,0.0387 1.83997,-0.0344 2.75869,0.0243 -0.0126,0.28061 -0.0252,0.56123 -0.0378,0.84184 -0.81301,0.004 -1.62476,-0.0229 -2.43526,0.0315 0.0554,0.36795 0.11579,0.73732 0.17872,1.10527 0.76141,0.009 1.52282,-0.0129 2.28423,0.009 -0.003,0.26486 -0.004,0.53259 -0.004,0.80031 -0.67709,0.0172 -1.35418,0.009 -2.03001,0.0129 0.13089,0.46959 0.28821,0.93059 0.47824,1.37442 0.48076,-0.27202 0.96026,-0.54834 1.44857,-0.80175 0.0176,0.22907 0.17242,0.50968 -0.0226,0.69294 -0.27436,0.35076 -0.62801,0.60417 -0.95145,0.890513 0.31337,0.46673 0.72491,0.82608 1.16791,1.12387 0,0.33216 -0.001,0.66431 -0.005,0.99789 -0.88349,-0.21761 -1.47374,-1.01077 -2.11055,-1.66792 -0.95145,0.49823 -1.90038,1.01221 -2.90721,1.35009 -0.001,-0.325 0,-0.64856 0.003,-0.97069 0.82811,-0.33788 1.65119,-0.68721 2.4642,-1.06947 -0.14976,-0.558363 -0.26303,-1.135333 -0.4946,-1.657893 -0.0667,-0.23194 -0.29701,-0.20187 -0.4644,-0.22048 -0.54494,-0.0272 -1.09114,0 -1.63609,-0.003 -0.0126,-0.27488 -0.0252,-0.54833 -0.0352,-0.82179 0.63179,-0.0372 1.26357,-0.0372 1.89661,-0.0358 -0.0919,-0.35935 -0.18249,-0.71871 -0.27184,-1.07806 -0.56005,-0.0573 -1.12261,-0.073 -1.68392,-0.0716 -0.001,-0.25913 -0.004,-0.51827 -0.005,-0.77597 0.4946,-0.0315 0.99046,-0.0515 1.48632,-0.073 -0.10697,-0.47818 -0.22905,-0.95207 -0.35868,-1.42309 z"
       id="path120" /><path
       fill="#767674"
       stroke="#767674"
       stroke-width="0.0125842"
       opacity="1"
       d="m 220.41846,94.014987 c 0.50467,-0.0444 1.01311,-0.0587 1.51779,-0.001 -0.004,0.23766 -0.009,0.47676 -0.0113,0.71585 -0.48202,0.0587 -0.96655,0.0659 -1.44857,0.0229 -0.0201,-0.24769 -0.0403,-0.49251 -0.0579,-0.73732 z"
       id="path122" /><path
       fill="#777473"
       stroke="#777473"
       stroke-width="0.0125842"
       opacity="1"
       d="m 235.05264,93.934807 c 1.91926,-0.001 3.83852,0.0229 5.75777,0.006 -10e-4,0.31067 0,0.62278 0.001,0.93632 -1.32523,0.0716 -2.65172,0.006 -3.97695,0.053 -0.0365,0.31211 -0.073,0.62422 -0.10949,0.93633 1.31264,0.0229 2.63032,-0.10308 3.93919,0.0673 0.1762,1.02366 0.0818,2.1189 -0.41153,3.01513 -1.09618,2.025843 -3.10354,3.312933 -5.17004,3.516233 -0.001,-0.31783 10e-4,-0.63567 0.004,-0.95207 1.29503,-0.24768 2.55733,-0.82895 3.50249,-1.894133 -1.08485,-0.0873 -2.17222,0.001 -3.25833,-0.0501 0.001,-0.27203 0.003,-0.54405 0.004,-0.81607 1.24217,-0.13458 2.48937,0.004 3.7328,-0.0501 0.34861,0.0301 0.46691,-0.42664 0.59025,-0.71298 0.10194,-0.36651 0.27939,-0.80031 0.11956,-1.17112 -0.46691,-0.18755 -0.97284,-0.0959 -1.45738,-0.10881 -0.57766,0.0258 -1.16414,-0.063 -1.73551,0.0544 -0.50719,0.36937 -0.90488,0.90626 -1.41962,1.26991 -0.12334,-0.1532 -0.24415,-0.30782 -0.36372,-0.45958 0.26304,-0.44382 0.5827,-0.84326 0.83567,-1.29711 0.22905,-0.41519 0.25296,-0.91914 0.3096,-1.3916 -0.30331,-0.0186 -0.60536,-0.0329 -0.90614,-0.0487 0.003,-0.30209 0.006,-0.60275 0.0126,-0.90197 z"
       id="path124" /><path
       fill="#7e7576"
       stroke="#7e7576"
       stroke-width="0.0125842"
       opacity="1"
       d="m 243.07451,93.854637 c 0.30708,-10e-4 0.61668,0 0.92502,0.003 0.0554,2.2048 0.006,4.41103 0.0365,6.617263 -0.0139,0.51112 0.0302,1.14822 -0.37756,1.49182 -0.62046,0.52973 -1.4448,0.42808 -2.17097,0.37654 10e-4,-0.27059 0.004,-0.53975 0.006,-0.80891 0.52606,-0.007 1.05464,-0.0515 1.56686,-0.2033 0.0151,-2.492573 -0.0378,-4.985143 0.0138,-7.476273 z"
       id="path126" /><path
       fill="#777471"
       stroke="#777471"
       stroke-width="0.0125842"
       opacity="1"
       d="m 250.11095,93.850337 c 0.31463,-10e-4 0.63052,-10e-4 0.94641,0 0.0126,0.53402 0.0189,1.06661 0.0214,1.60063 1.36298,0.12026 2.73101,-0.001 4.09651,0.0401 -0.001,0.27631 -0.001,0.55406 10e-4,0.83324 -1.35921,0.0773 -2.72094,-0.007 -4.08015,0.0272 0.39643,2.35799 2.00609,4.453983 4.07512,5.051003 0.009,0.35649 0.0151,0.71298 0.0189,1.0709 -2.07154,-0.45384 -3.88634,-2.18905 -4.6402,-4.429643 -0.38259,0.82751 -0.77777,1.66791 -1.3655,2.335083 -0.8772,0.99789 -1.98848,1.77816 -3.22435,2.02011 0,-0.29636 -0.0113,-0.59272 0.0302,-0.88478 0.12837,-0.18182 0.3461,-0.22764 0.52355,-0.32642 1.8148,-0.75737 3.10228,-2.708763 3.52514,-4.817643 -1.35795,-0.0472 -2.71591,0.0286 -4.0726,-0.0515 0.004,-0.27059 0.008,-0.54118 0.0151,-0.81033 1.36928,-0.0401 2.74108,0.0673 4.1091,-0.0544 -0.003,-0.53545 0.004,-1.06947 0.0201,-1.60349 z"
       id="path128" /><path
       fill="#777372"
       stroke="#777372"
       stroke-width="0.0125842"
       opacity="1"
       d="m 224.06316,94.139537 c 2.91853,-0.0344 5.83958,-0.0415 8.75685,0.007 -0.001,0.25484 -0.003,0.51111 -0.004,0.76882 -1.44101,0.0687 -2.88329,0.0129 -4.3243,0.003 -0.30205,-0.02 -0.58648,0.10595 -0.83315,0.2935 -0.67457,0.49966 -1.43095,0.83754 -2.08664,1.37442 0.84195,-0.15606 1.70908,0.16751 2.53216,-0.14317 1.41081,-0.47962 2.81533,-1.02223 4.28026,-1.24986 0.0138,0.27774 0.0302,0.55692 0.0453,0.8361 -1.64616,0.50539 -3.28351,1.04513 -4.91834,1.59777 -0.74127,0.27202 -1.48506,0.55263 -2.17851,0.96209 1.13771,0.13172 2.28171,0.0573 3.42194,0.0702 1.09618,-0.0186 2.19487,0.0401 3.28854,-0.0702 -0.0453,-0.44812 -0.13592,-0.88765 -0.26681,-1.31286 0.30079,-0.11453 0.60409,-0.22334 0.9074,-0.32929 0.14976,0.51828 0.35868,1.05373 0.28946,1.61209 -0.0994,0.49393 -0.48705,0.90912 -0.94138,0.93346 -0.95774,0.0888 -1.91926,-0.0115 -2.877,0.0272 -0.0277,0.691503 0.0201,1.390173 -0.0566,2.080243 -0.0277,0.37224 -0.34736,0.59558 -0.64689,0.63853 -0.61668,0.10595 -1.24342,0.0616 -1.86388,0.0558 0.003,-0.30209 0.006,-0.60417 0.0126,-0.90626 0.53487,0.0129 1.06975,0.004 1.60462,-0.043 0.0126,-0.6056 0.0126,-1.21264 -0.001,-1.816813 -1.02444,-0.0286 -2.05895,0.0888 -3.07584,-0.0974 -0.51474,-0.0902 -1.02822,-0.42234 -1.17421,-1.02509 0.38763,-0.27345 0.77525,-0.5469 1.16162,-0.82465 -0.47698,-0.28777 -0.97284,-0.57983 -1.30258,-1.08522 0.76393,-0.7502 1.78963,-0.9578 2.61649,-1.58631 -0.78658,-0.0501 -1.57442,0.0344 -2.36101,0.009 -0.003,-0.26057 -0.005,-0.5197 -0.005,-0.77884 z"
       id="path130" /><path
       fill="#78706f"
       stroke="#78706f"
       stroke-width="0.0125842"
       opacity="1"
       d="m 186.22547,94.308477 c 0.29575,-0.006 0.59151,-0.01 0.88726,-0.0114 0.044,2.2048 0.0478,4.41389 -0.0101,6.618693 -0.28442,-0.004 -0.56885,-0.007 -0.85202,-0.0114 -0.0843,-2.196213 -0.0906,-4.399583 -0.0252,-6.595793 z"
       id="path132" /><path
       fill="#77736e"
       stroke="#77736e"
       stroke-width="0.0125842"
       opacity="1"
       d="m 241.50009,94.287007 c 0.30834,0.003 0.61794,0.006 0.92879,0.0129 -0.004,2.2048 -0.009,4.41103 -0.001,6.615833 -0.31085,0.009 -0.62045,0.0143 -0.93005,0.0186 -0.004,-2.214833 -0.0126,-4.431083 0.003,-6.647333 z"
       id="path134" /><path
       fill="#fcfbfa"
       stroke="#fcfbfa"
       stroke-width="0.0125842"
       opacity="1"
       d="m 213.98863,94.843927 c 0.43545,-0.22477 0.9288,-0.0687 1.3869,-0.0358 0.0956,0.62851 0.0956,1.26705 0.0252,1.89985 -0.49712,0.009 -0.99424,0.006 -1.4901,-0.007 -0.034,-0.61705 -0.1032,-1.25988 0.078,-1.8569 z"
       id="path136" /><path
       fill="#777170"
       stroke="#777170"
       stroke-width="0.0125842"
       opacity="1"
       d="m 191.3653,95.647107 c 0.27436,-0.01 0.54998,-0.0158 0.82434,-0.02 0.0226,0.28061 0.044,0.56265 0.068,0.84469 0.62297,0.0444 1.24846,0.0387 1.87143,-0.0229 0.0315,-0.26773 0.0617,-0.53546 0.0931,-0.80318 0.26051,0.004 0.51851,0.0472 0.77902,0.0573 0.2064,0.4882 0.51474,0.93059 0.57138,1.48609 -0.63053,0.0988 -1.26608,0.0988 -1.89912,0.1403 -0.001,0.22192 -0.001,0.44526 0,0.6686 0.61164,-0.009 1.22203,-0.009 1.83367,0.0258 -0.003,0.29064 -0.004,0.58413 -0.004,0.8762 -0.60661,0.0344 -1.21197,0.0387 -1.81858,0.0372 -0.0302,0.92201 0.0919,1.866923 -0.1032,2.771753 -0.19507,0.63567 -0.82433,0.81177 -1.35166,0.83611 -0.004,-0.25341 -0.006,-0.50539 -0.006,-0.75594 0.16738,-0.19327 0.4493,-0.32069 0.48328,-0.61992 0.0768,-0.74018 0.0264,-1.487523 0.0226,-2.230573 -0.62927,0.006 -1.25727,0.01 -1.88528,-0.0172 -0.0214,-0.30208 -0.0415,-0.60274 -0.0617,-0.90339 0.6494,-0.0258 1.29881,-0.0258 1.94821,-0.0229 0.005,-0.21618 0.008,-0.43094 0.0101,-0.64569 -0.63808,-0.0301 -1.27741,-0.0301 -1.91674,-0.0501 0.034,-0.60704 0.40147,-1.08236 0.54116,-1.65217 z"
       id="path138" /><path
       fill="#74716f"
       stroke="#74716f"
       stroke-width="0.0125842"
       opacity="1"
       d="m 207.45183,96.138177 c 0.29953,0.001 0.60032,0.006 0.89985,0.01 0.0277,1.00218 -0.0126,2.00437 0.0315,3.00655 0.86587,0.0229 1.73425,-0.0258 2.60138,0.0401 -0.003,0.27058 -0.004,0.5426 -0.004,0.814633 -1.54296,0.0157 -3.08592,0.0186 -4.62888,-0.001 -0.27813,0.007 -0.5613,0 -0.82937,0.0902 -0.3914,0.42092 -0.62297,1.00361 -1.03954,1.40019 -0.71107,0.68721 -1.66126,0.9306 -2.56866,1.0165 -0.003,-0.29636 -0.004,-0.59129 -0.003,-0.88621 0.53739,-0.13458 1.09744,-0.23051 1.58575,-0.53832 0.36875,-0.2305 0.61919,-0.62851 0.86713,-1.00218 -0.81931,-0.0458 -1.63861,0.004 -2.45665,-0.0286 0.005,-0.277743 0.0126,-0.554063 0.0226,-0.830373 1.83493,-0.0587 3.67491,0.0673 5.50858,-0.0687 0.004,-1.00647 -0.0315,-2.01581 0.0126,-3.02229 z"
       id="path142" /><path
       fill="#746d6e"
       stroke="#746d6e"
       stroke-width="0.0125842"
       opacity="1"
       d="m 201.85892,96.381567 c 1.49136,0.0143 2.98398,-0.001 4.47659,-0.007 0,0.29779 0,0.59701 0,0.89767 -1.49261,0.01 -2.98523,-0.009 -4.47785,-0.009 0,-0.29493 0,-0.58843 10e-4,-0.88192 z"
       id="path144" /><path
       fill="#7b7674"
       stroke="#7b7674"
       stroke-width="0.0125842"
       opacity="1"
       d="m 179.99449,97.665787 c 0.0944,-0.55979 0.5764,-0.92773 1.05842,-0.94491 0.96403,-0.063 1.93184,-0.001 2.89714,-0.0315 0.50593,0.003 1.15407,0.007 1.43094,0.58842 0.2794,0.64999 0.22528,1.42167 0.12837,2.11747 -0.0466,0.40517 -0.34861,0.700103 -0.69722,0.745913 -0.83818,0.1489 -1.69272,0.0945 -2.53845,0.0745 0,-0.257703 0.001,-0.515413 0.004,-0.771683 0.76645,-0.0358 1.54044,0.0286 2.30185,-0.11454 0.0529,-0.55692 0.039,-1.11814 -0.039,-1.66935 -1.1868,-0.10308 -2.38492,-0.13887 -3.57045,0 -0.0969,1.24987 -0.23283,2.564163 0.0919,3.783963 1.48129,0.0716 2.96258,-0.0186 4.44513,0.0315 0.001,0.2935 0.001,0.587 0.001,0.88192 -1.18931,0.0516 -2.37988,0.0115 -3.56919,0.0229 -0.55753,-0.0143 -1.20316,0 -1.62099,-0.49393 -0.41154,-0.42951 -0.35994,-1.11672 -0.38259,-1.69226 0.0113,-0.843263 -0.068,-1.695123 0.0591,-2.528363 z"
       id="path148" /><path
       fill="#727272"
       stroke="#727272"
       stroke-width="0.0125842"
       opacity="1"
       d="m 201.91933,97.876247 c 1.48255,-0.0286 2.9651,-0.0458 4.44765,10e-4 -0.003,0.25484 -0.005,0.51255 -0.006,0.77025 -1.48003,0.0301 -2.96132,0.0358 -4.44009,-0.01 -0.003,-0.25484 -0.003,-0.50825 -0.001,-0.76166 z"
       id="path152" /><path
       fill="#726d6d"
       stroke="#726d6d"
       stroke-width="0.0125842"
       opacity="1"
       d="m 194.39333,99.515527 c 0.28065,10e-4 0.56256,10e-4 0.84321,0 -0.0768,0.990733 0.12082,1.949963 0.35616,2.894883 -0.35113,-0.0515 -0.7526,-0.12026 -0.94641,-0.50396 -0.38008,-0.71298 -0.29701,-1.5949 -0.25296,-2.390923 z"
       id="path158" /><path
       fill="#736c6c"
       stroke="#736c6c"
       stroke-width="0.0125842"
       opacity="1"
       d="m 191.02928,99.584247 c 0.29575,-0.007 0.5915,-0.0115 0.88726,-0.0143 -0.001,0.860443 0.17619,1.925623 -0.46314,2.567013 -0.16487,0.25198 -0.71988,0.21046 -0.60661,-0.1947 0.11201,-0.77884 0.20514,-1.56484 0.18249,-2.358003 z"
       id="path160" /><path
       fill="#777372"
       stroke="#777372"
       stroke-width="0.0125842"
       opacity="1"
       d="m 224.6295,99.936447 c 0.25674,0.0358 0.51348,0.0716 0.77148,0.110243 -0.0541,0.66287 -0.13844,1.36726 -0.50341,1.91274 -0.22654,0.3436 -0.63808,0.3479 -0.97159,0.43666 0.0793,-0.86903 0.41657,-1.66219 0.70352,-2.459643 z"
       id="path162" /><path
       fill="#777473"
       stroke="#777473"
       stroke-width="0.0125842"
       opacity="1"
       d="m 231.40668,99.923557 c 0.31086,-0.01 0.62297,-0.0157 0.93509,-0.0186 0.10697,0.864743 0.49586,1.623543 0.74631,2.436743 -0.43042,-0.0673 -0.959,-0.0773 -1.22581,-0.53689 -0.31841,-0.55692 -0.37378,-1.23984 -0.45559,-1.881243 z"
       id="path164" /><path
       fill="#757273"
       stroke="#757273"
       stroke-width="0.0125842"
       opacity="1"
       d="m 207.60159,100.48335 c 0.32596,-0.007 0.66199,-0.0644 0.98166,0.0358 0.39643,0.24482 0.69596,0.68005 1.14526,0.82035 0.42161,0.13601 0.85957,0.19185 1.28999,0.27775 -0.0164,0.27918 -0.0315,0.55979 -0.0453,0.8404 -0.84573,-0.0659 -1.7418,-0.16178 -2.45916,-0.723 -0.4128,-0.29779 -0.67835,-0.77741 -0.91244,-1.2513 z"
       id="path168" /><path
       fill="#817977"
       stroke="#817977"
       stroke-width="0.00628411"
       opacity="1"
       d="m 217.00654,83.044217 c 0.27727,-0.05 0.57905,-0.0479 0.85568,-0.001 0.088,0.273 0.0132,0.59888 0.0333,0.8926 0.91604,0.001 1.83144,-0.008 2.74747,-0.001 0.62368,0.035 1.25051,0.63604 1.2241,1.37928 0.10374,0.73109 0.0371,1.4779 0.0585,2.21614 -0.022,0.66462 0.0578,1.34283 -0.0849,1.99531 -0.14523,0.44594 -0.46211,0.85472 -0.88523,0.95048 -1.01097,0.16295 -2.04017,0.05 -3.05868,0.0786 -0.0428,0.29944 0.0968,0.68678 -0.0836,0.92619 -0.27286,0.0107 -0.54698,0.0136 -0.81984,0 -0.18232,-0.24656 -0.008,-0.62389 -0.0824,-0.92262 -0.93552,-0.007 -1.87419,0.0279 -2.80783,-0.0186 -0.67334,-0.0757 -1.14802,-0.7318 -1.21278,-1.4729 -0.0384,-1.17703 -0.005,-2.36121 -0.0145,-3.54039 0.0434,-0.75039 0.5256,-1.52007 1.22599,-1.57795 0.95627,-0.0336 1.91442,0.004 2.87195,-0.0164 0.0176,-0.29229 -0.0528,-0.61389 0.0327,-0.88688 m 0.8934,1.72445 c -0.0113,1.65014 0,3.30098 -0.002,4.95112 0.81921,-0.0322 1.64219,0.0179 2.46015,-0.0236 0.36591,-0.001 0.635,-0.40878 0.60922,-0.80755 -0.0113,-1.21206 0.034,-2.42768 -0.0295,-3.6383 -0.0937,-0.24227 -0.32505,-0.43451 -0.56144,-0.47024 -0.8255,-0.0157 -1.65163,0.0136 -2.4765,-0.0114 m -3.65847,0.1172 c -0.27412,0.0722 -0.35082,0.43808 -0.35271,0.71537 0,1.19061 -0.008,2.38265 0.005,3.57326 0.0566,0.32731 0.30492,0.50669 0.58533,0.51384 0.79595,0.0179 1.59378,0.0129 2.39036,0.009 0.0201,-0.0236 0.061,-0.07 0.0817,-0.0936 -0.001,-1.57724 0.0239,-3.15734 -0.0126,-4.73386 -0.89592,-0.0207 -1.80503,-0.0536 -2.69717,0.0157 z"
       id="path324" /><g
       id="g2323"
       transform="matrix(0.06277796,0,0,0.07088263,214.7172,88.274017)"><path
         fill="#737272"
         stroke="#737272"
         stroke-width="0.09375"
         opacity="1"
         d="m 742.29742,78.345036 c 4.36,-1.26 8.77,-0.3 13.18,0.03 0.26,2.57 0.57,5.13 0.91,7.69 9.52,-0.06 19.05,-0.08 28.57,-0.04 9.91,-0.4 20.15,-2.07 29.84,0.75 1.1,1.62 2.94,2.58 3.81,4.33 0.98,3.97 0.88,8.910004 0.93,13.380004 -4.98,0.27 -9.97,0.28 -14.95,0.11 -0.79,-2.22 0.15,-7.870004 -3.59,-6.530004 -26.01,-0.23 -52.03,0.08 -78.04,-0.14 -6.01,-0.16 -11.97,-1.51 -18.01,-1.21 -4.93,0.34 -9.85,0.9 -14.77,1.31 -0.02,2.060004 -0.55,4.070004 -1.03,6.100004 -4.1,0.5 -8.19,1.1 -12.34,0.89 -2.32,-3.02 -0.19,-6.920004 -0.17,-10.370004 1.98,-3.85 3.56,-7.14 7.91,-9.38 6.13,-0.08 12.31,-0.25 18.4,0.67 12.41,0.07 24.9,0.12 37.34,0.14 1.95,-2.13 -0.12,-6.53 2.01,-7.73 z"
         id="path304" /><path
         fill="#737272"
         stroke="#737272"
         stroke-width="0.09375"
         opacity="1"
         d="m 702.56742,103.56504 c 5.17,0.19 10.34,0.18 15.51,0.2 0.03,1.83 0.04,3.65 0.05,5.47 20.24,1.03 26.0105,-0.26523 60.77,0.11 0.22,-2.04 0.33,-4.09 0.56,-6.12 4.66,0.07 9.32,-0.11 13.99,-0.18 -0.1,1.82 -0.18,3.64 -0.2,5.46 8.78,-0.01 17.57,0.19 26.34,0.73 -0.12,2.03 -0.14,4.06 -0.08,6.1 -8.65,-0.88 -17.34,-0.6 -26.01,-0.81 -0.34,2.27 -0.68,4.54 -1,6.8 9.01,1.23 18.1,-0.29 27.12,0.76 -0.05,1.82 -0.1,3.64 -0.14,5.46 -8.76,0.06 -17.54,-0.1 -26.28,0.59 -0.01,2.38 -0.01,4.77 0,7.15 8.71,-0.47 17.5,1.21 26.12,0.26 0.06,1.93 0.19,3.86 0.39,5.79 -3.22,0.39 -6.44,0.71 -9.67,1.04 0.08,2.07 -0.23,4.17 0.09,6.22 3.04,0.2 6.06,0.53 9.09,0.74 -0.83,4.02 2.16,8.53 0.01,11.75 -2.09,0.25 -4.19,0.48 -6.28,0.75 0.04,5.33 0.02,10.66 0.02,15.99 -5.35,-0.02 -10.71,0 -16.06,0.02 -0.12,-5.59 -0.09,-11.17 0.37,-16.74 -12.46,-0.13 -24.93,-0.1 -37.39,-0.05 l -0.88,-0.61 c -19.79,1.3 -39.64,-0.02 -59.45,0.76 1.05,5.57 0.36,11.31 -0.41,17.12 -3.9,-1.77 -8.8,-0.24 -13.12,-0.63 -0.43,-5.33 1.2,-11.11 -0.89,-16.09 -2.87,-0.52 -5.31,1.24 -7.8,-0.58 0.07,-3.7 0.08,-7.39 0.08,-11.09 3.14,-0.04 6.28,-0.15 9.43,-0.24 -0.07,-2.45 -0.12,-4.89 -0.18,-7.33 -2.81,0.18 -6.07,-1.6 -8.55,-0.18 -3.04,-1.48 0.2,-4.57 -1.44,-6.87 8.96,-0.4 17.91,0.49 26.87,0.18 -0.02,-2.41 -0.03,-4.83 -0.02,-7.25 -9.09,-0.66 -18.19,-0.58 -27.29,-0.79 0.08,-1.7 0.16,-3.4 0.26,-5.09 8.78,-0.46 17.58,-0.68 26.37,-0.63 0.03,-2.12 0.04,-4.24 0.06,-6.36 -8.74,-1.19 -17.57,-0.45 -26.35,-0.91 0.03,-1.68 0.05,-3.36 0.08,-5.04 8.57,-0.62 17.13,-0.88 25.7,-0.26 0.03,-1.87 0.1,-3.73 0.21,-5.6 m 15.38,11.72 c -1.63,0.43 -0.12,4.08 -0.64,5.8 35.07768,-0.52383 41.16015,-0.39977 62.53,0.49 -0.14,-2.02 -0.29,-4.04 -0.47,-6.06 -14.12,0.9 -28.28,0.11 -42.42,0.43 -6.34,0.22 -12.68,-0.17 -19,-0.66 m 0.09,13.01 c -2.05,0.59 -0.41,5.01 -0.97,7.11 36.11948,-0.79523 41.42202,-0.89806 62.86,-0.36 -0.03,-2.2 -0.06,-4.4 -0.07,-6.6 -6.96,-0.24 -13.95,0.05 -20.91,-0.58 -13.64,-0.68 -27.27,0.4 -40.91,0.43 m -11.78,13.73 -0.82,0.02 c -0.04,2.65 -0.89,5.1 -2.07,7.45 11.86,0.45 23.72,-0.05 35.58,0.09 12.65,0.8 25.33,0.14 37.99,0.36 6.15,0.2 12.27,-0.37 18.4,-0.65 -0.42,-2.24 -0.82,-4.48 -1.19,-6.72 -1.41,-0.19 -2.86,-1.82 -4.22,-0.79 -27.89,0.16 -55.78,-0.04 -83.67,0.24 z"
         id="path306"
         sodipodi:nodetypes="cccccccccccccccccccccccccccccccccccccccccccccccccccccccccccccccccccc" /><path
         fill="#fdfcfc"
         stroke="#fdfcfc"
         stroke-width="0.09375"
         opacity="1"
         d="m 717.94742,115.28504 c 6.32,0.49 12.66,0.88 19,0.66 14.14,-0.32 28.3,0.47 42.42,-0.43 0.18,2.02 -24.08917,3.33858 -23.94917,5.35858 -63.66968,-0.21138 -2.29435,0.18574 -19.03071,-0.18456 18.09838,0.72326 -15.00012,0.22598 -19.08012,0.39598 0.52,-1.72 -0.99,-5.37 0.64,-5.8 z"
         id="path308"
         sodipodi:nodetypes="ccccccc" /><path
         fill="#fdfcfc"
         stroke="#fdfcfc"
         stroke-width="0.09375"
         opacity="1"
         d="m 718.03742,128.29504 c 13.64,-0.03 26.74202,-0.52548 40.38202,0.15452 6.96,0.63 14.47798,-0.24452 21.43798,-0.005 0.01,2.2 0.04,4.4 0.07,6.6 -22.62594,-0.18735 -29.77641,-1.37045 -62.86,0.36 0.56,-2.1 -1.08,-6.52 0.97,-7.11 z"
         id="path310"
         sodipodi:nodetypes="ccccccc" /><path
         fill="#fdfcfc"
         stroke="#fdfcfc"
         stroke-width="0.09375"
         opacity="1"
         d="m 706.25742,142.02504 c 27.89,-0.28 55.78,-0.08 83.67,-0.24 1.36,-1.03 2.81,0.6 4.22,0.79 0.37,2.24 0.77,4.48 1.19,6.72 -6.13,0.28 -12.25,0.85 -18.4,0.65 -12.66,-0.22 -25.34,0.44 -37.99,-0.36 -11.86,-0.14 -23.72,0.36 -35.58,-0.09 1.18,-2.35 2.03,-4.8 2.07,-7.45 z"
         id="path312" /><path
         fill="#737272"
         stroke="#737272"
         stroke-width="0.09375"
         opacity="1"
         d="m 746.31742,163.19504 c 2.3,-0.34 4.63,-0.2 6.94,-0.07 1.87,2.94 6.65,5.29 8.25,8.04 8.07,6.45 17.31,11.11 27.19,13.96 10.58,1.81 21.3,1.98 31.95,3.09 0,3.34 -0.14,6.69 -0.08,10.04 -5.65,1.86 -11.94,-1.1 -17.58,-0.34 -10.31,-1.23 -20.41,-2.71 -30.31,-5.8 -8.59,-3.39 -17.44,-7.47 -23.4,-14.81 -0.42,-0.06 -1.26,-0.17 -1.68,-0.23 -3.25,4.38 -8.16,6.86 -12.42,10.1 -13.68,7.13 -29.26,8.61 -44.3,10.67 -4.42,0.1 -9.67,0.8 -14.56,0.64 -0.21,-3.24 -0.47,-6.48 -0.72,-9.71 0.59,-0.2 1.75,-0.58 2.34,-0.77 7.98,-0.88 16,-1.3 23.99,-2.05 6.64,-2.16 13.83,-2.74 20.03,-6.14 4.59,-2.22 8.85,-5.05 12.99,-8.02 4.1,-2.37 6.48,-7.55 11.37,-8.6 z"
         id="path314" /></g></g></svg>
