<?xml version="1.0" encoding="UTF-8" standalone="no"?>
<!-- Generator: Adobe Illustrator 27.2.0, SVG Export Plug-In . SVG Version: 6.00 Build 0)  -->

<svg
   version="1.1"
   id="图层_1"
   x="0px"
   y="0px"
   viewBox="0 0 160.8 162.7"
   xml:space="preserve"
   sodipodi:docname="sdlogo.svg"
   width="160.8"
   height="162.7"
   inkscape:version="1.2.2 (732a01da63, 2022-12-09)"
   xmlns:inkscape="http://www.inkscape.org/namespaces/inkscape"
   xmlns:sodipodi="http://sodipodi.sourceforge.net/DTD/sodipodi-0.dtd"
   xmlns="http://www.w3.org/2000/svg"
   xmlns:svg="http://www.w3.org/2000/svg"><defs
   id="defs191" /><sodipodi:namedview
   id="namedview189"
   pagecolor="#ffffff"
   bordercolor="#000000"
   borderopacity="0.25"
   inkscape:showpageshadow="2"
   inkscape:pageopacity="0.0"
   inkscape:pagecheckerboard="0"
   inkscape:deskcolor="#d1d1d1"
   showgrid="false"
   inkscape:zoom="2.6062917"
   inkscape:cx="262.63369"
   inkscape:cy="81.533467"
   inkscape:window-width="1920"
   inkscape:window-height="1001"
   inkscape:window-x="-9"
   inkscape:window-y="-9"
   inkscape:window-maximized="1"
   inkscape:current-layer="横向" />
<style
   type="text/css"
   id="style2">
	.拱形绿色{fill:url(#SVGID_1_);stroke:#FFFFFF;stroke-width:0.25;stroke-miterlimit:1;}
	.st0{fill:#930E14;}
	.st1{fill-rule:evenodd;clip-rule:evenodd;fill:#930E14;}
</style>
<linearGradient
   id="SVGID_1_"
   gradientUnits="userSpaceOnUse"
   x1="-85.039398"
   y1="531.59167"
   x2="-84.332298"
   y2="530.88458">
	<stop
   offset="0"
   style="stop-color:#00A53B"
   id="stop4" />
	<stop
   offset="0.9831"
   style="stop-color:#133618"
   id="stop6" />
</linearGradient>
<g
   id="横向">
	
	<g
   id="g185">
		<path
   class="st1"
   d="M 80.4,0 C 36,0 0,36.4 0,81.4 c 0,44.9 36,81.3 80.4,81.3 44.4,0 80.4,-36.4 80.4,-81.3 0,-45 -36,-81.4 -80.4,-81.4 z m 0,159.8 C 37.6,159.8 2.8,124.7 2.8,81.3 2.8,38 37.6,2.9 80.4,2.9 123.2,2.9 158,38 158,81.4 c 0,43.3 -34.8,78.4 -77.6,78.4 z"
   id="path75" />
		<g
   id="g149">
			<g
   id="g79">
				<path
   class="st0"
   d="m 70.7,148.4 0.3,-1.7 4.5,0.7 -0.6,4.1 c -0.5,0.4 -1.2,0.6 -2.1,0.8 -0.9,0.2 -1.7,0.2 -2.6,0.1 -1.1,-0.2 -2,-0.5 -2.7,-1.1 -0.7,-0.6 -1.3,-1.3 -1.5,-2.2 -0.3,-0.9 -0.3,-1.8 -0.2,-2.8 0.2,-1.1 0.5,-2 1.1,-2.8 0.6,-0.8 1.3,-1.3 2.3,-1.6 0.7,-0.2 1.6,-0.3 2.6,-0.1 1.3,0.2 2.3,0.6 2.9,1.3 0.6,0.6 1,1.4 1.1,2.4 l -2.2,0.1 c -0.1,-0.5 -0.3,-1 -0.6,-1.3 -0.4,-0.4 -0.8,-0.6 -1.4,-0.7 -0.9,-0.1 -1.7,0.1 -2.3,0.5 -0.6,0.5 -1,1.3 -1.2,2.5 -0.2,1.2 0,2.2 0.4,2.9 0.4,0.7 1.1,1.1 2,1.2 0.4,0.1 0.9,0 1.3,-0.1 0.5,-0.1 0.9,-0.3 1.2,-0.5 l 0.2,-1.3 z"
   id="path77" />
			</g>
			<g
   id="g83">
				<path
   class="st0"
   d="m 53.5,147.8 3.5,-9.8 1.9,0.7 1.7,8 2.4,-6.7 1.9,0.6 -3.5,9.8 -2,-0.7 -1.7,-7.8 -2.3,6.4 z"
   id="path81" />
			</g>
			<g
   id="g87">
				<path
   class="st0"
   d="m 23.8,125 8,-6.8 1.3,1.5 -2.5,7.7 5.3,-4.5 1.3,1.5 -8,6.8 -1.4,-1.6 2.5,-7.6 -5.2,4.4 z"
   id="path85" />
			</g>
			<g
   id="g91">
				<path
   class="st0"
   d="m 48,136 c 0.8,-0.2 1.5,-0.1 2.3,0.3 0.7,0.4 1.2,1.1 1.3,1.8 0.1,0.8 -0.1,1.7 -0.7,2.7 -0.6,1 -1.3,1.7 -2.1,1.9 -0.8,0.2 -1.5,0.1 -2.3,-0.3 -0.7,-0.4 -1.2,-1.1 -1.3,-1.9 -0.1,-0.8 0.1,-1.7 0.7,-2.7 0.6,-0.9 1.3,-1.5 2.1,-1.8 z m -4.8,4.9 c 0.3,1.3 1.1,2.3 2.5,3.1 1.3,0.8 2.6,1 3.9,0.7 1.3,-0.3 2.4,-1.2 3.2,-2.7 0.9,-1.5 1.2,-2.8 0.9,-4.1 -0.3,-1.3 -1.1,-2.3 -2.4,-3.1 -0.7,-0.4 -1.5,-0.7 -2.2,-0.8 -0.5,-0.1 -1.1,0 -1.7,0.1 -0.6,0.1 -1.1,0.4 -1.6,0.7 -0.6,0.4 -1.3,1.1 -1.8,2 -0.9,1.5 -1.1,2.8 -0.8,4.1 z"
   id="path89" />
			</g>
			<g
   id="g95">
				<path
   class="st0"
   d="m 40,129.4 c 0.7,0.6 1.1,1 1.3,1.2 0.2,0.3 0.4,0.6 0.4,1 0,0.3 0,0.7 -0.2,1.1 -0.2,0.4 -0.5,0.9 -1,1.6 -0.5,0.6 -1,1 -1.4,1.3 -0.4,0.3 -0.8,0.4 -1.1,0.4 -0.3,0 -0.6,-0.1 -0.9,-0.2 -0.2,-0.1 -0.6,-0.4 -1,-0.7 l -1.2,-1 4.5,-5.2 z m -8,4.6 3,2.6 c 0.6,0.5 1.1,0.8 1.6,1 0.6,0.3 1.2,0.3 1.7,0.3 0.7,-0.1 1.4,-0.3 2.1,-0.7 0.6,-0.3 1.1,-0.8 1.7,-1.5 0.6,-0.7 1.1,-1.4 1.3,-2.1 0.3,-0.7 0.4,-1.3 0.3,-1.9 0,-0.6 -0.2,-1.2 -0.6,-1.8 -0.3,-0.4 -0.7,-0.9 -1.4,-1.4 l -3,-2.5 z"
   id="path93" />
			</g>
			<g
   id="g99">
				<path
   class="st0"
   d="m 22.4,114.8 4.1,-0.7 -2.7,3.2 z m 6.8,-0.8 -1.1,-1.9 -11.2,1.6 1.1,1.9 2.5,-0.4 2.1,3.6 -1.6,2 1.1,2 z"
   id="path97" />
			</g>
			<g
   id="g103">
				<path
   class="st0"
   d="m 12.8,103.3 9.9,-3.5 0.7,2 -3.9,1.4 1.4,3.8 3.9,-1.4 0.7,2 -9.9,3.5 -0.7,-2 4.3,-1.5 -1.4,-3.8 -4.3,1.5 z"
   id="path101" />
			</g>
			<g
   id="g107">
				<path
   class="st0"
   d="m 13.6,90.9 0.6,2 c -0.7,0.2 -1.1,0.6 -1.4,1 -0.3,0.4 -0.3,1 -0.2,1.6 0.1,0.7 0.4,1.1 0.7,1.4 0.3,0.3 0.7,0.4 1.1,0.3 0.2,0 0.4,-0.1 0.6,-0.3 0.1,-0.2 0.3,-0.5 0.3,-0.8 0,-0.3 0.1,-0.8 0.1,-1.7 0.1,-1.2 0.3,-2 0.6,-2.5 0.5,-0.7 1.1,-1.2 1.9,-1.3 0.5,-0.1 1.1,0 1.6,0.2 0.5,0.2 0.9,0.6 1.3,1.1 0.3,0.5 0.6,1.2 0.7,1.9 0.2,1.3 0.1,2.3 -0.3,3 -0.4,0.8 -1.1,1.2 -2.1,1.4 l -0.5,-2.1 c 0.5,-0.2 0.9,-0.4 1,-0.8 0.2,-0.3 0.2,-0.8 0.1,-1.4 -0.1,-0.6 -0.3,-1 -0.6,-1.3 -0.2,-0.2 -0.4,-0.3 -0.7,-0.2 -0.3,0 -0.4,0.2 -0.6,0.4 -0.2,0.3 -0.3,1 -0.3,2 -0.1,1 -0.2,1.8 -0.3,2.4 -0.2,0.5 -0.4,1 -0.8,1.3 -0.4,0.4 -0.9,0.6 -1.6,0.7 -0.6,0.1 -1.2,0 -1.8,-0.2 -0.6,-0.2 -1,-0.6 -1.4,-1.2 -0.4,-0.5 -0.6,-1.3 -0.8,-2.1 -0.2,-1.3 -0.1,-2.3 0.4,-3.1 0.5,-0.8 1.3,-1.3 2.4,-1.7 z"
   id="path105" />
			</g>
			<g
   id="g111">
				<path
   class="st0"
   d="m 82.5,142.7 2.1,-0.2 0.5,5.6 c 0.1,0.9 0.2,1.5 0.2,1.7 0.1,0.4 0.4,0.7 0.7,1 0.4,0.2 0.8,0.3 1.4,0.3 0.6,-0.1 1,-0.2 1.3,-0.5 0.3,-0.3 0.4,-0.6 0.5,-0.9 0,-0.4 0,-1 -0.1,-1.8 l -0.5,-5.7 2.1,-0.2 0.5,5.4 c 0.1,1.2 0.1,2.1 0.1,2.6 -0.1,0.5 -0.2,1 -0.5,1.4 -0.3,0.4 -0.7,0.7 -1.2,1 -0.5,0.3 -1.1,0.4 -2,0.5 -1,0.1 -1.8,0 -2.3,-0.2 -0.5,-0.2 -1,-0.5 -1.3,-0.8 -0.3,-0.3 -0.6,-0.7 -0.7,-1.1 -0.2,-0.6 -0.3,-1.4 -0.4,-2.6 z"
   id="path109" />
			</g>
			<g
   id="g115">
				<path
   class="st0"
   d="m 95.8,151.6 -2.9,-10 2,-0.5 6.1,5.5 -1.9,-6.7 1.9,-0.5 2.9,10 -2,0.6 -6,-5.4 1.9,6.6 z"
   id="path113" />
			</g>
			<g
   id="g119">
				<path
   class="st0"
   d="m 107,148 -4,-9.6 2,-0.8 4,9.6 z"
   id="path117" />
			</g>
			<g
   id="g123">
				<path
   class="st0"
   d="m 114.3,144.7 -8.4,-7.3 2,-1.1 6.1,5.4 -1.6,-8 2,-1.1 1.9,10.9 z"
   id="path121" />
			</g>
			<g
   id="g127">
				<path
   class="st0"
   d="m 121.8,140.2 -6.5,-8.1 6.1,-4.8 1.1,1.4 -4.5,3.5 1.5,1.8 4.1,-3.2 1.1,1.4 -4.1,3.3 1.8,2.2 4.6,-3.6 1.1,1.4 z"
   id="path125" />
			</g>
			<g
   id="g131">
				<path
   class="st0"
   d="m 125.6,125.5 1.1,-1.2 c 0.6,-0.6 0.9,-1 1.1,-1.1 0.3,-0.2 0.6,-0.3 0.8,-0.3 0.3,0 0.6,0.1 0.8,0.4 0.2,0.2 0.4,0.4 0.4,0.7 0.1,0.2 0,0.5 -0.1,0.7 -0.1,0.3 -0.5,0.7 -1.2,1.5 l -1.1,1.1 z m 6.4,5.8 -3.2,-2.9 0.3,-0.3 c 0.3,-0.4 0.6,-0.6 0.8,-0.7 0.2,-0.1 0.5,-0.2 0.8,-0.2 0.3,0 0.9,0.1 1.9,0.2 l 2.7,0.4 1.7,-1.8 -2.4,-0.4 c -1,-0.2 -1.6,-0.3 -2.1,-0.3 -0.4,0 -0.9,0.1 -1.4,0.2 0.5,-0.8 0.8,-1.5 0.7,-2.2 -0.1,-0.7 -0.4,-1.3 -1,-1.8 -0.5,-0.4 -1,-0.7 -1.5,-0.8 -0.6,-0.1 -1.1,0 -1.6,0.2 -0.5,0.2 -1.1,0.8 -1.9,1.6 l -3,3.3 7.8,7 z"
   id="path129" />
			</g>
			<g
   id="g135">
				<path
   class="st0"
   d="m 135.3,122.3 1,-1.8 c 0.6,0.3 1.2,0.3 1.7,0.2 0.5,-0.1 0.9,-0.5 1.3,-1 0.4,-0.5 0.6,-1 0.5,-1.5 0,-0.4 -0.2,-0.8 -0.5,-1 -0.2,-0.1 -0.4,-0.2 -0.7,-0.2 -0.2,0 -0.5,0.2 -0.8,0.4 -0.2,0.2 -0.6,0.5 -1.3,1.1 -0.9,0.8 -1.6,1.2 -2.2,1.4 -0.8,0.2 -1.6,0.1 -2.3,-0.4 -0.4,-0.3 -0.8,-0.7 -1,-1.2 -0.2,-0.5 -0.3,-1.1 -0.2,-1.7 0.1,-0.6 0.4,-1.2 0.8,-1.9 0.7,-1.1 1.5,-1.7 2.4,-2 0.9,-0.2 1.7,-0.1 2.5,0.4 l -1.1,1.8 c -0.5,-0.2 -0.9,-0.3 -1.3,-0.2 -0.4,0.1 -0.7,0.4 -1,0.9 -0.3,0.5 -0.5,1 -0.5,1.4 0,0.3 0.1,0.5 0.4,0.6 0.2,0.1 0.4,0.2 0.7,0.1 0.3,-0.1 0.9,-0.5 1.7,-1.2 0.8,-0.7 1.4,-1.2 1.9,-1.5 0.5,-0.3 1,-0.4 1.5,-0.4 0.5,0 1.1,0.2 1.6,0.6 0.5,0.3 0.9,0.8 1.1,1.4 0.3,0.6 0.3,1.2 0.2,1.8 -0.1,0.6 -0.4,1.3 -1,2.1 -0.7,1.1 -1.6,1.8 -2.5,2 -0.8,0.4 -1.8,0.3 -2.9,-0.2 z"
   id="path133" />
			</g>
			<g
   id="g139">
				<path
   class="st0"
   d="m 144.3,114.3 -9.5,-4.5 0.9,-1.9 9.5,4.5 z"
   id="path137" />
			</g>
			<g
   id="g143">
				<path
   class="st0"
   d="m 147.3,107.3 -8.2,-2.8 -1,2.9 -1.7,-0.6 2.8,-7.8 1.7,0.6 -1,2.9 8.2,2.9 z"
   id="path141" />
			</g>
			<g
   id="g147">
				<path
   class="st0"
   d="m 150.3,96.8 -4.4,-0.8 -6.7,2.7 0.5,-2.4 4.6,-1.7 -3.7,-3.1 0.4,-2.4 5.3,4.8 4.3,0.8 z"
   id="path145" />
			</g>
		</g>
		<path
   class="st0"
   d="m 80.1,25.4 c -30.7,0 -55.6,24.8 -55.6,55.5 0,30.6 24.9,55.5 55.6,55.5 30.7,0 55.6,-24.8 55.6,-55.5 0,-30.6 -24.9,-55.5 -55.6,-55.5 z m 0,2.2 c 29.4,0 53.3,23.8 53.3,53.2 0,8.6 -2,16.7 -5.7,23.9 H 32.5 v 0 c -3.6,-7.2 -5.7,-15.3 -5.7,-24 0,-29.2 23.9,-53.1 53.3,-53.1 z m 0,106.5 c -19.8,0 -37,-10.7 -46.2,-26.7 h 92.5 c -9.3,16 -26.5,26.7 -46.3,26.7 z"
   id="path151" />
		<path
   class="st0"
   d="m 126.6,92.4 c -7.5,5.9 -13.5,-0.9 -13.5,-0.9 -9.9,9.4 -17.9,0.5 -17.9,0.5 -6.2,4.5 -9,3.6 -9,3.6 l -2.1,-15.2 12.2,-0.1 2.2,5 h 7 l -2.2,-4.9 h 8.3 l 2.1,5 7.2,-0.3 -2,-4.5 h 6.1 l 0.1,-6.9 -9.8,0.2 L 103.1,49.3 93.5,59.5 80.3,32.2 66.8,59.3 57.3,49.1 47.6,68.7 35.2,68.3 l -0.1,7.2 9,-0.4 -3.9,8.5 H 47 l 4,-8.5 8.3,-0.2 -3.8,8.8 h 6.9 l 3.9,-8.8 10.5,0.1 -3.6,5 2.9,0.1 -1.9,15.2 c -3.5,0.8 -8.8,-3.6 -8.8,-3.6 -9.9,9 -18.5,-0.3 -18.5,-0.3 -6.2,6.9 -13.5,1 -13.5,1 l -1.7,4.2 c 8.3,5.3 15.6,0.4 15.6,0.4 10.3,6.6 18.4,0.5 18.4,0.5 10.1,6.5 14.3,0.2 14.3,0.2 6.7,6 14.9,-0.4 14.9,-0.4 8.2,6.5 17.9,-0.2 17.9,-0.2 8.2,5 15.6,-0.3 15.6,-0.3 z m -25,-33 6.9,14.6 -8.1,0.5 -4.2,-9.5 z m -39.3,9.6 -8,-0.4 4.5,-9 5.2,5.4 z m 20.5,0.6 -1.2,-8.2 -3,-0.1 -1.1,8.3 -8.5,-0.5 11.3,-23.6 13.2,29 -10,0.2 3.9,-5.1 z"
   id="path153" />
		<g
   id="g161">
			<path
   class="st0"
   d="m 18.1,54.8 c 0,0 0.4,0.3 0.6,0 0,0 0.2,-1.4 -0.4,-2.1 0,0 -1.8,-2.5 -2.1,-3.8 0,0 -0.5,-0.6 -2.8,-0.6 0,0 -0.3,0.5 -0.1,0.7 0.2,0.2 1,-0.1 1.9,1.5 l 2.2,2.9 c 0,0 0.8,0.9 0.7,1.4 z"
   id="path155" />
			<path
   class="st0"
   d="m 25.3,50.8 -2.5,-0.2 c 0,0 -0.9,0.3 -0.2,0.8 0,0 1.3,2.7 0.9,4.2 0,0 0.5,0.8 0.7,-0.3 0,0 0.7,-2.9 1.4,-3.3 0,-0.1 0.5,-1 -0.3,-1.2 z"
   id="path157" />
			<path
   class="st0"
   d="m 20.7,54.4 c 0,0 -0.2,-0.8 -0.6,-0.1 0,0 0.2,2.6 -0.4,3.4 0,0 0,2.5 -0.3,3.2 0,0 -0.4,1.6 -0.3,1.9 h -0.3 c 0,0 -1.4,-3.7 -3.1,-2.9 0,0 -0.1,0.4 0.3,0.7 0,0 1.9,3.6 1.6,4.6 0,0 1.3,0.3 2.4,0.3 0,0 1.3,-3.2 1.5,-4.4 0,0 0.1,-2.2 0,-2.9 -0.1,0 -0.4,-2.7 -0.8,-3.8 z"
   id="path159" />
		</g>
		<path
   class="st0"
   d="m 152.7,57.6 -0.5,-0.2 -1.3,-1.1 c 0,0 -1,0.2 -0.8,-1.2 0,0 -0.1,-0.5 -0.9,-0.4 l -2.4,-1.8 c 0,0 -0.8,-0.6 0.6,-1.1 0,0 1,-0.4 -0.5,-0.5 0,0 -1.7,0.2 -1.9,0.6 0,0 -0.2,1.4 1,1.3 0,0 2.3,1.6 2.7,1.8 0,0 -0.4,1.2 -0.1,1.7 0,0 -0.1,0.5 -1.3,-0.3 0,0 -5.5,-2.4 -5.7,-3.3 0,0 -1.2,-0.2 -1.7,0.2 0,0 -0.1,1.1 0.2,1.3 l 1.7,1.1 c 0,0 -0.7,0.3 -2.1,-0.1 0,0 -1.4,0.2 -0.5,1.4 0,0 0.7,1.5 -0.3,2.1 0,0 0,-2.8 -4.2,-6.3 0,0 -1.3,0 -2,6 0,0 -0.3,2.4 2.4,2.2 l 2.1,-0.3 c 0,0 0.2,-0.3 0.5,0.2 l -0.1,1.5 c 0,0 -0.7,0.5 0.1,0.8 0,0 0.8,1.3 1.3,-0.5 l -0.1,-2.6 c 0,0 1.6,0.3 1.4,-2.7 l 3.6,0.2 c 0,0 1,-0.8 -0.7,-2.1 0,0 2,1 2.5,1.7 0,0 0.1,0.3 1.1,0.3 0,0 0.2,0.5 2,0.8 0,0 0.1,0.9 4,1.1 -0.1,0.1 0.4,-1.2 -0.1,-1.8 z m -17.2,2.3 c -2.4,0 -1.5,-3.5 -1.5,-3.5 0,-1.8 1.8,0.6 1.8,0.6 l 1.3,1.8 c 1,1.6 -1.6,1.1 -1.6,1.1 z m 14.7,-3.1 c 0,0 0.2,-0.1 0.5,0.2 l 0.6,0.6 c 0,0 -1.8,-0.1 -1.1,-0.8 z"
   id="path163" />
		<g
   id="g169">
			<path
   class="st0"
   d="m 54,24.9 c 0,0 -0.7,-0.7 0,-3.6 L 53.4,20.6 V 20 l -0.6,-0.1 c 0,0 -0.4,-0.8 -1.3,-0.4 0,0 -0.6,0.1 0.2,-0.9 L 53.2,16.3 53,13.4 c 0,0 0.1,-0.6 -0.9,-0.4 0,0 0.2,0.6 -0.2,1.1 -0.4,0.6 -0.9,1.7 -1.1,2.3 0,0 -0.3,-2.7 -0.5,-3.2 l -0.6,-0.9 c 0,0 -0.9,-0.5 -0.2,1 v 5.9 l -1.1,1.5 c 0,0 -1.6,0.4 -0.4,1.2 l 1.7,0.4 0.1,3.8 v 1.1 l 1.4,0.2 1.2,-1.8 c 0,0 0.2,-0.1 0.3,0.3 l 0.2,1.6 c 0,0 -0.5,1.7 -0.9,1.9 0,0 -0.2,0.1 -0.6,0.6 0,0 -1.3,1.7 0.7,1.7 0,0 0.8,0.3 0.9,-0.9 l 0.1,-1.5 3,0.6 c 0,0 0.2,-0.8 -0.5,-1.8 z m -2.3,-0.7 -0.6,1 -0.6,-3.1 c -0.2,-1 0.6,-1.8 0.6,-1.8 0.4,0.8 0.6,2.5 0.6,2.5 0,0.8 0,1.4 0,1.4 z"
   id="path165" />
			<path
   class="st0"
   d="m 56.8,24.8 -1.7,0.3 c 0,0 -1.1,0.6 0.1,0.7 0,0 1.1,0.4 1.7,0.9 0,0 0.8,1 1.1,-0.2 v -0.9 c 0.1,0 0,-0.8 -1.2,-0.8 z"
   id="path167" />
		</g>
		<path
   class="st0"
   d="m 63.9,116.2 -1.2,1 -0.8,-1.2 2.6,-2.1 0.9,0.5 v 10.5 h -1.5 z"
   id="path171" />
		<path
   class="st0"
   d="m 95.5,116.2 -1.2,1 -0.8,-1.2 2.7,-2.1 0.9,0.5 v 10.5 h -1.5 v -8.7 z"
   id="path173" />
		<path
   class="st0"
   d="m 76.1,117.1 c 0,0.4 0,0.8 -0.1,1.1 -0.1,0.3 -0.2,0.6 -0.4,0.8 -0.2,0.2 -0.6,0.3 -1.2,0.3 -0.2,0 -0.5,0 -0.7,-0.1 -0.3,0 -0.5,-0.2 -0.7,-0.3 -0.2,-0.2 -0.3,-0.4 -0.4,-0.7 -0.1,-0.2 -0.1,-0.5 -0.1,-1 0,-0.4 0,-0.8 0.1,-1 0.1,-0.2 0.2,-0.4 0.4,-0.6 0.2,-0.1 0.3,-0.2 0.6,-0.3 0.2,-0.1 0.5,-0.1 0.8,-0.1 0.4,0 0.7,0.1 1,0.2 0.2,0.1 0.4,0.4 0.6,0.6 0,0.3 0,0.6 0.1,1.1 z m 0,3.9 c 0,0.3 0,0.5 -0.1,0.8 -0.1,0.3 -0.1,0.5 -0.2,0.7 -0.1,0.2 -0.3,0.4 -0.5,0.5 -0.2,0.1 -0.4,0.2 -0.7,0.3 -0.3,0 -0.5,0.1 -0.7,0 -0.3,0 -0.6,-0.1 -0.9,-0.2 -0.2,-0.2 -0.4,-0.3 -0.4,-0.5 -0.1,-0.2 -0.1,-0.3 -0.1,-0.5 H 71 l 0.2,0.6 c 0,0.2 0.1,0.5 0.3,0.8 0.2,0.3 0.4,0.6 0.6,0.7 0.2,0.2 0.6,0.3 0.9,0.4 0.4,0.1 0.8,0.1 1.2,0.1 0.4,0 0.7,-0.1 1.1,-0.2 0.4,-0.1 0.7,-0.2 0.9,-0.4 0.2,-0.2 0.4,-0.4 0.6,-0.6 0.2,-0.2 0.3,-0.5 0.4,-0.8 0.1,-0.3 0.2,-0.6 0.2,-1 0,-0.3 0,-0.8 0,-1.3 v -3.1 c 0,-0.5 0,-1 -0.2,-1.4 -0.1,-0.4 -0.3,-0.8 -0.5,-1.1 -0.2,-0.3 -0.6,-0.6 -1,-0.9 -0.5,-0.2 -1,-0.4 -1.6,-0.4 -0.4,0 -0.7,0.1 -1.1,0.2 -0.4,0.1 -0.7,0.3 -1,0.5 -0.3,0.2 -0.5,0.5 -0.6,0.8 -0.1,0.3 -0.2,0.6 -0.3,0.9 -0.1,0.3 -0.1,0.6 -0.1,1 0,0.7 0.1,1.2 0.2,1.6 0.1,0.4 0.3,0.6 0.5,0.9 0.2,0.2 0.6,0.4 1,0.6 0.5,0.2 1,0.3 1.7,0.2 0.3,0 0.5,0 0.7,-0.1 0.2,0 0.4,-0.1 0.6,-0.2 0.1,-0.1 0.3,-0.1 0.4,-0.2 z"
   id="path175" />
		<path
   class="st0"
   d="m 88,119.9 c 0,0.3 -0.1,0.8 -0.1,1.2 -0.1,0.5 -0.2,0.9 -0.4,1.2 -0.2,0.3 -0.4,0.6 -0.7,0.8 -0.3,0.2 -0.6,0.2 -0.9,0.2 -0.4,0 -0.7,-0.1 -1,-0.3 -0.3,-0.2 -0.5,-0.4 -0.7,-0.8 -0.2,-0.3 -0.3,-0.7 -0.4,-1.2 -0.1,-0.5 -0.1,-1 -0.1,-1.7 0,-0.4 0,-0.7 0,-1 0,-0.3 0.1,-0.6 0.2,-1 0.1,-0.4 0.2,-0.8 0.4,-1.1 0.2,-0.3 0.4,-0.6 0.7,-0.8 0.3,-0.2 0.6,-0.3 1,-0.3 0.4,0 0.7,0.1 0.9,0.3 0.2,0.2 0.5,0.4 0.6,0.7 0.2,0.3 0.3,0.7 0.4,1.1 0.1,0.4 0.2,1 0.2,1.7 -0.1,0.4 -0.1,0.7 -0.1,1 z m 1.5,-1.6 c 0,-0.5 -0.1,-1 -0.2,-1.4 -0.1,-0.4 -0.3,-0.9 -0.5,-1.3 -0.2,-0.4 -0.5,-0.8 -0.8,-1 -0.3,-0.3 -0.7,-0.5 -1,-0.6 -0.4,-0.2 -0.7,-0.2 -1.1,-0.2 -0.5,0 -0.9,0.1 -1.3,0.3 -0.4,0.2 -0.8,0.5 -1,0.8 -0.2,0.3 -0.5,0.7 -0.7,1.1 -0.2,0.4 -0.3,0.8 -0.4,1.3 -0.1,0.5 -0.1,0.9 -0.2,1.3 0,0.3 0,0.7 0,1.4 0,0.6 0,1.2 0.1,1.6 0.1,0.4 0.2,0.9 0.4,1.3 0.2,0.4 0.4,0.8 0.7,1.1 0.3,0.3 0.7,0.6 1.1,0.7 0.4,0.2 0.9,0.2 1.3,0.2 0.5,0 0.9,0 1.3,-0.2 0.4,-0.1 0.7,-0.3 0.9,-0.5 0.2,-0.2 0.5,-0.5 0.7,-0.9 0.2,-0.4 0.4,-0.7 0.5,-1.1 0.1,-0.4 0.2,-0.8 0.2,-1.3 0,-0.5 0.1,-0.8 0.1,-1.1 -0.1,-0.5 -0.1,-1 -0.1,-1.5 z"
   id="path177" />
		<g
   id="g183">
			<path
   class="st0"
   d="m 111.9,19.1 1.6,0.1 2,-1.2 c 0,0 0.4,-0.2 0,-0.8 0,0 -0.3,0.4 -0.9,0.3 -0.6,-0.1 -1.5,0 -2,0.1 v 0 l -1.3,-0.1 c 0.4,-0.3 -0.4,-2.2 -0.4,-2.2 -0.4,-0.8 -0.8,-0.5 -0.8,-0.5 -0.5,0.4 -0.7,1.7 -0.7,1.7 l -0.5,0.7 -1.9,0.1 -2.1,-0.3 c 0,0 -1.3,-1.4 -1.4,0.2 l 0.4,1.3 c 0,0.2 0.1,0.4 0.2,0.6 v 0.1 0 c 0.4,0.5 1.2,0.6 1.4,0.6 -0.6,0.1 -2.7,1.3 -2.7,1.3 -3.2,2.2 -7.5,2.3 -7.5,2.3 -1.3,0.2 0.3,0.6 0.3,0.6 1.4,0.3 6.6,-0.9 6.6,-0.9 7.4,-2 8.5,-4.1 8.5,-4.1 0.3,0 0.7,0.1 1.2,0.1 z"
   id="path179" />
			<path
   class="st0"
   d="m 108.6,25.2 c 0,0 -0.6,-1.3 -1.1,0.2 0,0 -1,3.2 -2.3,3.4 0,0 -1.1,0.5 -0.1,0.7 0,0 2.3,-1 3.7,-1.1 0,0 1.3,-1.1 -0.2,-3.2 z"
   id="path181" />
		</g>
	</g>
</g>
</svg>
